<?xml version="1.0" encoding="UTF-8"?>
<!DOCTYPE svg PUBLIC "-//W3C//DTD SVG 1.1//EN" "http://www.w3.org/Graphics/SVG/1.1/DTD/svg11.dtd">
<!-- Creator: CorelDRAW 2021 (64-Bit) -->
<svg xmlns="http://www.w3.org/2000/svg" xml:space="preserve" width="6.9067mm" height="6.9067mm" version="1.1" style="shape-rendering:geometricPrecision; text-rendering:geometricPrecision; image-rendering:optimizeQuality; fill-rule:evenodd; clip-rule:evenodd"
viewBox="0 0 87.62 87.62"
 xmlns:xlink="http://www.w3.org/1999/xlink"
 xmlns:xodm="http://www.corel.com/coreldraw/odm/2003">
 <defs>
  <style type="text/css">
   <![CDATA[
    .fil5 {fill:none}
    .fil4 {fill:#48954E}
    .fil3 {fill:#FEFEFE;fill-rule:nonzero}
    .fil1 {fill:#EDC337;fill-rule:nonzero}
    .fil0 {fill:#48954E;fill-rule:nonzero}
    .fil2 {fill:#403972;fill-rule:nonzero}
   ]]>
  </style>
   <clipPath id="id0">
    <path d="M43.81 0c24.2,0 43.81,19.61 43.81,43.81 0,24.2 -19.61,43.81 -43.81,43.81 -24.2,0 -43.81,-19.61 -43.81,-43.81 0,-24.2 19.61,-43.81 43.81,-43.81z"/>
   </clipPath>
 </defs>
 <g id="Capa_x0020_1">
  <metadata id="CorelCorpID_0Corel-Layer"/>
  <g>
  </g>
  <g style="clip-path:url(#id0)">
   <g>
    <g id="_1708704010096">
     <polygon class="fil0" points="-31.29,87.62 118.92,87.62 118.92,0 -31.29,0 "/>
     <polygon class="fil1" points="-8.13,43.81 43.81,76.98 95.78,43.81 43.81,10.64 "/>
     <path class="fil2" d="M65.71 43.81c0,12.09 -9.8,21.9 -21.9,21.9 -12.09,0 -21.89,-9.81 -21.89,-21.9 0,-12.09 9.8,-21.91 21.89,-21.91 12.1,0 21.9,9.82 21.9,21.91z"/>
     <path class="fil3" d="M31.3 34.42c-2.57,0 -5.08,0.19 -7.53,0.53 -0.47,1.07 -0.86,2.19 -1.16,3.35 2.82,-0.48 5.72,-0.75 8.7,-0.75 12.83,0 24.56,4.84 33.42,12.8 0.36,-1.12 0.62,-2.29 0.78,-3.47 -9.25,-7.78 -21.17,-12.47 -34.2,-12.47z"/>
     <path class="fil4" d="M25.09 37.02c0.29,-0.04 0.5,-0.36 0.46,-0.72 -0.04,-0.36 -0.31,-0.62 -0.63,-0.58 -0.3,0.04 -0.52,0.35 -0.47,0.72 0.05,0.36 0.33,0.62 0.64,0.59zm0.04 0.38c0.51,-0.06 0.88,-0.57 0.8,-1.15 -0.06,-0.57 -0.53,-0.98 -1.05,-0.92 -0.53,0.05 -0.89,0.58 -0.8,1.15 0.06,0.57 0.53,0.98 1.05,0.92z"/>
     <path class="fil4" d="M27.14 36.03l0.8 -0.05c0.15,-0.02 0.25,-0.15 0.25,-0.3 -0.02,-0.15 -0.13,-0.26 -0.27,-0.25l-0.81 0.04 0.04 0.55zm-0.3 1.19l0.38 -0.04 -0.05 -0.77 0.85 -0.05c0.34,-0.03 0.61,-0.35 0.6,-0.71 -0.04,-0.36 -0.35,-0.63 -0.7,-0.6l-1.2 0.08 0.13 2.09z"/>
     <path class="fil0" d="M28.59 37.1c-0.02,-0.3 -0.05,-0.95 -0.51,-0.93l-0.57 0.04c0.65,-0.04 0.7,0.62 0.74,0.91l0.34 -0.02z"/>
     <path class="fil4" d="M29.85 36.66l0.57 -0.01c0.31,-0.01 0.57,-0.27 0.55,-0.57l0 -0.19c0,-0.3 -0.26,-0.55 -0.56,-0.55l-0.58 0.01 0.02 1.31zm-0.37 0.4l0.97 -0.02c0.5,-0.01 0.89,-0.41 0.89,-0.91l-0.02 -0.3c-0.01,-0.48 -0.42,-0.89 -0.91,-0.88l-0.97 0.02 0.04 2.09z"/>
     <polygon class="fil0" points="32.11,37.03 34,37.1 34.01,36.7 32.5,36.65 32.52,36.12 33.71,36.15 33.71,35.8 32.54,35.75 32.54,35.34 33.98,35.39 33.98,35 32.19,34.93 "/>
     <polygon class="fil0" points="34.78,37.14 35.13,37.17 35.25,35.74 35.54,37.2 35.88,37.24 36.41,35.84 36.28,37.27 36.64,37.3 36.82,35.22 36.31,35.18 35.76,36.56 35.47,35.1 34.95,35.06 "/>
     <polygon class="fil0" points="39.08,37.62 40.65,37.88 40.69,37.53 39.51,37.33 39.59,36.87 40.57,37.03 40.61,36.68 39.66,36.51 39.7,36.18 40.86,36.38 40.9,36.03 39.42,35.77 "/>
     <path class="fil4" d="M43.74 37.37l0.77 0.21c0.15,0.04 0.28,-0.05 0.32,-0.19 0.04,-0.14 -0.05,-0.29 -0.18,-0.33l-0.78 -0.2 -0.12 0.51zm-0.69 1.03l0.37 0.1 0.21 -0.75 0.8 0.2c0.36,0.09 0.72,-0.12 0.81,-0.47 0.08,-0.35 -0.13,-0.71 -0.47,-0.81l-1.15 -0.3 -0.56 2.02z"/>
     <path class="fil4" d="M46.34 38.09l0.77 0.25c0.13,0.04 0.29,-0.03 0.34,-0.18 0.05,-0.14 -0.03,-0.29 -0.18,-0.33l-0.76 -0.25 -0.16 0.51zm-0.73 0.99l0.38 0.11 0.24 -0.73 0.78 0.25c0.36,0.11 0.72,-0.09 0.83,-0.43 0.11,-0.35 -0.08,-0.71 -0.42,-0.82l-1.15 -0.36 -0.65 1.98z"/>
     <path class="fil0" d="M47.3 39.62c0.1,-0.28 0.29,-0.9 -0.13,-1.04l-0.53 -0.18c0.61,0.2 0.42,0.82 0.32,1.11l0.34 0.1z"/>
     <path class="fil4" d="M49.15 39.87c0.29,0.12 0.62,-0.09 0.75,-0.42 0.13,-0.34 0,-0.7 -0.28,-0.81 -0.29,-0.1 -0.63,0.09 -0.76,0.43 -0.13,0.34 0.02,0.7 0.29,0.81zm-0.13 0.37c0.49,0.18 1.04,-0.11 1.24,-0.65 0.21,-0.54 -0.02,-1.13 -0.51,-1.31 -0.49,-0.19 -1.06,0.11 -1.25,0.64 -0.21,0.55 0.04,1.13 0.52,1.32z"/>
     <path class="fil4" d="M51.63 40.87c0.28,0.13 0.62,-0.05 0.76,-0.38 0.15,-0.33 0.04,-0.7 -0.24,-0.82 -0.28,-0.12 -0.62,0.05 -0.76,0.38 -0.15,0.33 -0.05,0.7 0.24,0.82zm-0.16 0.36c0.47,0.21 1.06,-0.06 1.28,-0.58 0.22,-0.54 0.03,-1.12 -0.45,-1.33 -0.47,-0.21 -1.04,0.05 -1.27,0.58 -0.22,0.53 -0.03,1.13 0.44,1.33z"/>
     <polygon class="fil0" points="52.02,40.32 52.75,40.65 52.62,40.91 51.91,40.59 "/>
     <polygon class="fil0" points="52.48,40.51 52.75,40.65 52.32,41.59 52.07,41.47 "/>
     <path class="fil4" d="M53.9 41.06l0.72 0.35c0.13,0.07 0.29,0.02 0.36,-0.12 0.06,-0.13 0.02,-0.29 -0.11,-0.36l-0.73 -0.36 -0.23 0.48zm-0.86 0.87l0.34 0.17 0.34 -0.7 0.74 0.38c0.32,0.16 0.72,0.02 0.87,-0.3 0.17,-0.33 0.04,-0.72 -0.29,-0.88l-1.06 -0.53 -0.95 1.85z"/>
     <path class="fil0" d="M54.62 42.71c0.13,-0.27 0.42,-0.85 0.03,-1.05l-0.52 -0.26c0.6,0.3 0.3,0.89 0.18,1.15l0.3 0.17z"/>
     <polygon class="fil0" points="55.39,43.12 57.04,44.05 57.21,43.71 55.9,42.96 56.16,42.5 57.19,43.08 57.37,42.76 56.34,42.18 56.55,41.81 57.78,42.52 57.99,42.18 56.42,41.3 "/>
     <path class="fil0" d="M58.45 44.14c-0.12,0.17 0,0.37 0.24,0.53 0.26,0.16 0.42,0.15 0.5,0.05 0.22,-0.37 -1.09,-0.89 -0.69,-1.51 0.34,-0.54 0.95,-0.13 1.17,0.02 0.23,0.14 0.59,0.52 0.3,0.95l-0.38 -0.25c0.13,-0.18 0,-0.37 -0.21,-0.48 -0.19,-0.14 -0.35,-0.2 -0.47,0 -0.2,0.28 1.1,0.82 0.69,1.46 -0.27,0.46 -0.78,0.25 -1.12,0.04 -0.3,-0.19 -0.72,-0.62 -0.45,-1.06l0.41 0.25z"/>
     <path class="fil0" d="M60.68 45.62c-0.13,0.16 -0.04,0.37 0.21,0.55 0.24,0.18 0.43,0.18 0.51,0.07 0.24,-0.34 -1.06,-0.94 -0.61,-1.54 0.38,-0.52 0.96,-0.07 1.17,0.08 0.23,0.16 0.55,0.55 0.24,0.97l-0.36 -0.26c0.12,-0.18 0,-0.36 -0.2,-0.51 -0.19,-0.13 -0.32,-0.2 -0.45,-0.02 -0.21,0.28 1.04,0.9 0.62,1.5 -0.33,0.45 -0.83,0.22 -1.14,-0.01 -0.29,-0.2 -0.7,-0.66 -0.39,-1.08l0.39 0.27z"/>
     <path class="fil4" d="M63.03 47.72c0.25,0.2 0.62,0.12 0.85,-0.17 0.23,-0.29 0.19,-0.67 -0.03,-0.86 -0.25,-0.2 -0.6,-0.12 -0.83,0.17 -0.25,0.29 -0.23,0.67 0.02,0.86zm-0.25 0.31c0.41,0.32 1.03,0.22 1.38,-0.23 0.36,-0.45 0.32,-1.08 -0.08,-1.4 -0.41,-0.33 -1.02,-0.22 -1.38,0.23 -0.36,0.45 -0.32,1.08 0.08,1.4z"/>
     <polygon class="fil3" points="25.93,38.94 25.64,39.83 26.09,39.97 "/>
     <polygon class="fil3" points="25.93,38.94 26.22,39.83 25.78,39.97 "/>
     <polygon class="fil3" points="26.82,39.58 25.88,39.58 25.88,40.05 "/>
     <polygon class="fil3" points="26.82,39.58 26.07,40.13 25.78,39.75 "/>
     <polygon class="fil3" points="25.04,39.58 25.8,40.13 26.07,39.75 "/>
     <polygon class="fil3" points="25.04,39.58 25.98,39.58 25.98,40.05 "/>
     <polygon class="fil3" points="26.48,40.63 26.19,39.74 25.75,39.89 "/>
     <polygon class="fil3" points="26.48,40.63 25.72,40.08 26,39.7 "/>
     <polygon class="fil3" points="25.38,40.63 26.14,40.08 25.86,39.7 "/>
     <polygon class="fil3" points="25.38,40.63 25.67,39.74 26.13,39.89 "/>
     <polygon class="fil3" points="27.88,48.14 27.58,49.03 28.04,49.18 "/>
     <polygon class="fil3" points="27.88,48.14 28.16,49.03 27.72,49.18 "/>
     <polygon class="fil3" points="28.75,48.79 27.82,48.79 27.82,49.26 "/>
     <polygon class="fil3" points="28.75,48.79 28.01,49.35 27.73,48.96 "/>
     <polygon class="fil3" points="26.98,48.79 27.73,49.35 28.03,48.96 "/>
     <polygon class="fil3" points="26.98,48.79 27.93,48.79 27.93,49.26 "/>
     <polygon class="fil3" points="28.43,49.84 28.14,48.95 27.69,49.09 "/>
     <polygon class="fil3" points="28.43,49.84 27.67,49.28 27.94,48.91 "/>
     <polygon class="fil3" points="27.31,49.84 28.08,49.28 27.8,48.91 "/>
     <polygon class="fil3" points="27.31,49.84 27.6,48.95 28.05,49.09 "/>
     <polygon class="fil3" points="25.18,50.42 25.01,51.02 25.3,51.11 "/>
     <polygon class="fil3" points="25.18,50.42 25.38,51.02 25.09,51.11 "/>
     <polygon class="fil3" points="25.78,50.85 25.15,50.85 25.15,51.17 "/>
     <polygon class="fil3" points="25.78,50.85 25.28,51.22 25.09,50.97 "/>
     <polygon class="fil3" points="24.6,50.85 25.09,51.22 25.28,50.97 "/>
     <polygon class="fil3" points="24.6,50.85 25.22,50.85 25.22,51.17 "/>
     <polygon class="fil3" points="25.55,51.55 25.36,50.96 25.07,51.06 "/>
     <polygon class="fil3" points="25.55,51.55 25.05,51.19 25.24,50.93 "/>
     <polygon class="fil3" points="24.83,51.55 25.32,51.19 25.15,50.93 "/>
     <polygon class="fil3" points="24.83,51.55 25.01,50.96 25.3,51.06 "/>
     <polygon class="fil3" points="30.02,47.29 29.87,47.71 30.08,47.79 "/>
     <polygon class="fil3" points="30.02,47.29 30.15,47.71 29.94,47.79 "/>
     <polygon class="fil3" points="30.44,47.6 30,47.6 30,47.82 "/>
     <polygon class="fil3" points="30.44,47.6 30.08,47.87 29.95,47.69 "/>
     <polygon class="fil3" points="29.58,47.6 29.95,47.87 30.08,47.69 "/>
     <polygon class="fil3" points="29.58,47.6 30.04,47.6 30.04,47.82 "/>
     <polygon class="fil3" points="30.28,48.11 30.13,47.67 29.94,47.74 "/>
     <polygon class="fil3" points="30.28,48.11 29.92,47.84 30.05,47.65 "/>
     <polygon class="fil3" points="29.75,48.11 30.12,47.84 29.98,47.65 "/>
     <polygon class="fil3" points="29.75,48.11 29.89,47.67 30.1,47.74 "/>
     <polygon class="fil3" points="32.44,50.47 32.19,51.22 32.55,51.35 "/>
     <polygon class="fil3" points="32.44,50.47 32.67,51.22 32.31,51.35 "/>
     <polygon class="fil3" points="33.16,51.02 32.39,51.02 32.39,51.41 "/>
     <polygon class="fil3" points="33.16,51.02 32.54,51.48 32.31,51.15 "/>
     <polygon class="fil3" points="31.69,51.02 32.32,51.48 32.55,51.15 "/>
     <polygon class="fil3" points="31.69,51.02 32.47,51.02 32.47,51.41 "/>
     <polygon class="fil3" points="32.9,51.88 32.65,51.15 32.27,51.27 "/>
     <polygon class="fil3" points="32.9,51.88 32.26,51.43 32.48,51.11 "/>
     <polygon class="fil3" points="31.99,51.88 32.6,51.43 32.37,51.11 "/>
     <polygon class="fil3" points="31.99,51.88 32.21,51.15 32.58,51.27 "/>
     <polygon class="fil3" points="31.78,52.65 31.53,53.4 31.9,53.52 "/>
     <polygon class="fil3" points="31.78,52.65 32.01,53.4 31.64,53.52 "/>
     <polygon class="fil3" points="32.52,53.2 31.74,53.2 31.74,53.58 "/>
     <polygon class="fil3" points="32.52,53.2 31.88,53.66 31.65,53.34 "/>
     <polygon class="fil3" points="31.04,53.2 31.67,53.66 31.9,53.34 "/>
     <polygon class="fil3" points="31.04,53.2 31.82,53.2 31.82,53.58 "/>
     <polygon class="fil3" points="32.23,54.07 32,53.32 31.62,53.44 "/>
     <polygon class="fil3" points="32.23,54.07 31.59,53.6 31.83,53.29 "/>
     <polygon class="fil3" points="31.32,54.07 31.95,53.6 31.72,53.29 "/>
     <polygon class="fil3" points="31.32,54.07 31.56,53.32 31.93,53.44 "/>
     <polygon class="fil3" points="50.61,36.07 50.31,36.97 50.77,37.11 "/>
     <polygon class="fil3" points="50.61,36.07 50.9,36.97 50.45,37.11 "/>
     <polygon class="fil3" points="51.5,36.72 50.56,36.72 50.56,37.19 "/>
     <polygon class="fil3" points="51.5,36.72 50.74,37.27 50.46,36.89 "/>
     <polygon class="fil3" points="49.71,36.72 50.48,37.27 50.75,36.89 "/>
     <polygon class="fil3" points="49.71,36.72 50.65,36.72 50.65,37.19 "/>
     <polygon class="fil3" points="51.17,37.78 50.86,36.88 50.43,37.03 "/>
     <polygon class="fil3" points="51.17,37.78 50.4,37.22 50.67,36.84 "/>
     <polygon class="fil3" points="50.06,37.78 50.82,37.22 50.54,36.84 "/>
     <polygon class="fil3" points="50.06,37.78 50.35,36.88 50.81,37.03 "/>
     <polygon class="fil3" points="59.15,50.56 58.86,51.45 59.32,51.6 "/>
     <polygon class="fil3" points="59.15,50.56 59.45,51.45 59.01,51.6 "/>
     <polygon class="fil3" points="60.05,51.21 59.11,51.21 59.11,51.67 "/>
     <polygon class="fil3" points="60.05,51.21 59.3,51.76 59.01,51.37 "/>
     <polygon class="fil3" points="58.26,51.21 59.03,51.76 59.3,51.37 "/>
     <polygon class="fil3" points="58.26,51.21 59.21,51.21 59.21,51.67 "/>
     <polygon class="fil3" points="59.73,52.26 59.43,51.36 58.98,51.5 "/>
     <polygon class="fil3" points="59.73,52.26 58.96,51.7 59.24,51.32 "/>
     <polygon class="fil3" points="58.61,52.26 59.37,51.7 59.09,51.32 "/>
     <polygon class="fil3" points="58.61,52.26 58.9,51.36 59.35,51.5 "/>
     <polygon class="fil3" points="62.21,51.08 62,51.67 62.32,51.77 "/>
     <polygon class="fil3" points="62.21,51.08 62.4,51.67 62.09,51.77 "/>
     <polygon class="fil3" points="62.79,51.51 62.18,51.51 62.18,51.82 "/>
     <polygon class="fil3" points="62.79,51.51 62.29,51.88 62.11,51.62 "/>
     <polygon class="fil3" points="61.61,51.51 62.11,51.88 62.31,51.62 "/>
     <polygon class="fil3" points="61.61,51.51 62.24,51.51 62.24,51.82 "/>
     <polygon class="fil3" points="62.56,52.21 62.39,51.61 62.08,51.71 "/>
     <polygon class="fil3" points="62.56,52.21 62.06,51.84 62.25,51.58 "/>
     <polygon class="fil3" points="61.83,52.21 62.34,51.84 62.16,51.58 "/>
     <polygon class="fil3" points="61.83,52.21 62.03,51.61 62.32,51.71 "/>
     <polygon class="fil3" points="60.05,52.65 59.83,53.4 60.18,53.52 "/>
     <polygon class="fil3" points="60.05,52.65 60.29,53.4 59.94,53.52 "/>
     <polygon class="fil3" points="60.8,53.2 60.02,53.2 60.02,53.58 "/>
     <polygon class="fil3" points="60.8,53.2 60.18,53.66 59.94,53.34 "/>
     <polygon class="fil3" points="59.32,53.2 59.96,53.66 60.18,53.34 "/>
     <polygon class="fil3" points="59.32,53.2 60.1,53.2 60.1,53.58 "/>
     <polygon class="fil3" points="60.52,54.07 60.28,53.32 59.91,53.44 "/>
     <polygon class="fil3" points="60.52,54.07 59.89,53.6 60.12,53.29 "/>
     <polygon class="fil3" points="59.6,54.07 60.23,53.6 60,53.29 "/>
     <polygon class="fil3" points="59.6,54.07 59.83,53.32 60.21,53.44 "/>
     <polygon class="fil3" points="54.78,57.24 54.54,57.98 54.91,58.1 "/>
     <polygon class="fil3" points="54.78,57.24 55.02,57.98 54.64,58.1 "/>
     <polygon class="fil3" points="55.52,57.79 54.75,57.79 54.75,58.18 "/>
     <polygon class="fil3" points="55.52,57.79 54.89,58.24 54.66,57.92 "/>
     <polygon class="fil3" points="54.05,57.79 54.68,58.24 54.89,57.92 "/>
     <polygon class="fil3" points="54.05,57.79 54.83,57.79 54.83,58.18 "/>
     <polygon class="fil3" points="55.23,58.66 55.01,57.91 54.62,58.03 "/>
     <polygon class="fil3" points="55.23,58.66 54.6,58.19 54.83,57.88 "/>
     <polygon class="fil3" points="54.33,58.66 54.96,58.19 54.73,57.88 "/>
     <polygon class="fil3" points="54.33,58.66 54.56,57.91 54.94,58.03 "/>
     <polygon class="fil3" points="54.75,59.61 54.56,60.19 54.86,60.29 "/>
     <polygon class="fil3" points="54.75,59.61 54.94,60.19 54.64,60.29 "/>
     <polygon class="fil3" points="55.34,60.04 54.73,60.04 54.73,60.35 "/>
     <polygon class="fil3" points="55.34,60.04 54.83,60.4 54.64,60.15 "/>
     <polygon class="fil3" points="54.16,60.04 54.66,60.4 54.84,60.15 "/>
     <polygon class="fil3" points="54.16,60.04 54.78,60.04 54.78,60.35 "/>
     <polygon class="fil3" points="55.12,60.73 54.92,60.14 54.62,60.24 "/>
     <polygon class="fil3" points="55.12,60.73 54.6,60.37 54.79,60.11 "/>
     <polygon class="fil3" points="54.39,60.73 54.89,60.37 54.7,60.11 "/>
     <polygon class="fil3" points="54.39,60.73 54.58,60.14 54.87,60.24 "/>
     <polygon class="fil3" points="56.97,55.67 56.76,56.27 57.05,56.36 "/>
     <polygon class="fil3" points="56.97,55.67 57.14,56.27 56.85,56.36 "/>
     <polygon class="fil3" points="57.55,56.1 56.92,56.1 56.92,56.41 "/>
     <polygon class="fil3" points="57.55,56.1 57.05,56.48 56.85,56.22 "/>
     <polygon class="fil3" points="56.37,56.1 56.87,56.48 57.05,56.22 "/>
     <polygon class="fil3" points="56.37,56.1 57,56.1 57,56.41 "/>
     <polygon class="fil3" points="57.33,56.8 57.13,56.21 56.84,56.3 "/>
     <polygon class="fil3" points="57.33,56.8 56.82,56.44 57.02,56.18 "/>
     <polygon class="fil3" points="56.59,56.8 57.1,56.44 56.92,56.18 "/>
     <polygon class="fil3" points="56.59,56.8 56.8,56.21 57.08,56.3 "/>
     <polygon class="fil3" points="58.72,54.41 58.48,55.15 58.84,55.27 "/>
     <polygon class="fil3" points="58.72,54.41 58.96,55.15 58.58,55.27 "/>
     <polygon class="fil3" points="59.45,54.95 58.67,54.95 58.67,55.34 "/>
     <polygon class="fil3" points="59.45,54.95 58.84,55.41 58.61,55.09 "/>
     <polygon class="fil3" points="57.97,54.95 58.61,55.41 58.84,55.09 "/>
     <polygon class="fil3" points="57.97,54.95 58.75,54.95 58.75,55.34 "/>
     <polygon class="fil3" points="59.17,55.81 58.94,55.08 58.56,55.2 "/>
     <polygon class="fil3" points="59.17,55.81 58.54,55.36 58.77,55.04 "/>
     <polygon class="fil3" points="58.25,55.81 58.9,55.36 58.66,55.04 "/>
     <polygon class="fil3" points="58.25,55.81 58.5,55.08 58.86,55.2 "/>
     <polygon class="fil3" points="54.68,55.25 54.5,55.84 54.79,55.95 "/>
     <polygon class="fil3" points="54.68,55.25 54.89,55.84 54.58,55.95 "/>
     <polygon class="fil3" points="55.3,55.69 54.66,55.69 54.66,56 "/>
     <polygon class="fil3" points="55.3,55.69 54.78,56.05 54.6,55.79 "/>
     <polygon class="fil3" points="54.1,55.69 54.6,56.05 54.78,55.79 "/>
     <polygon class="fil3" points="54.1,55.69 54.73,55.69 54.73,56 "/>
     <polygon class="fil3" points="55.07,56.39 54.87,55.79 54.56,55.88 "/>
     <polygon class="fil3" points="55.07,56.39 54.56,56.01 54.73,55.77 "/>
     <polygon class="fil3" points="54.33,56.39 54.83,56.01 54.64,55.77 "/>
     <polygon class="fil3" points="54.33,56.39 54.52,55.79 54.83,55.88 "/>
     <polygon class="fil3" points="35.47,43.92 35.23,44.66 35.6,44.78 "/>
     <polygon class="fil3" points="35.47,43.92 35.71,44.66 35.34,44.78 "/>
     <polygon class="fil3" points="36.22,44.46 35.44,44.46 35.44,44.85 "/>
     <polygon class="fil3" points="36.22,44.46 35.58,44.93 35.36,44.6 "/>
     <polygon class="fil3" points="34.72,44.46 35.36,44.93 35.58,44.6 "/>
     <polygon class="fil3" points="34.72,44.46 35.5,44.46 35.5,44.85 "/>
     <polygon class="fil3" points="35.93,45.33 35.7,44.59 35.33,44.71 "/>
     <polygon class="fil3" points="35.93,45.33 35.29,44.88 35.52,44.56 "/>
     <polygon class="fil3" points="35,45.33 35.65,44.88 35.42,44.56 "/>
     <polygon class="fil3" points="35,45.33 35.25,44.59 35.61,44.71 "/>
     <polygon class="fil3" points="49.76,42.07 49.59,42.67 49.88,42.76 "/>
     <polygon class="fil3" points="49.76,42.07 49.97,42.67 49.67,42.76 "/>
     <polygon class="fil3" points="50.38,42.52 49.75,42.52 49.75,42.82 "/>
     <polygon class="fil3" points="50.38,42.52 49.86,42.88 49.69,42.63 "/>
     <polygon class="fil3" points="49.18,42.52 49.69,42.88 49.86,42.63 "/>
     <polygon class="fil3" points="49.18,42.52 49.82,42.52 49.82,42.82 "/>
     <polygon class="fil3" points="50.15,43.21 49.94,42.61 49.65,42.71 "/>
     <polygon class="fil3" points="50.15,43.21 49.63,42.84 49.82,42.58 "/>
     <polygon class="fil3" points="49.41,43.21 49.91,42.84 49.73,42.58 "/>
     <polygon class="fil3" points="49.41,43.21 49.6,42.61 49.89,42.71 "/>
     <polygon class="fil3" points="43.81,52.7 43.52,53.59 43.97,53.74 "/>
     <polygon class="fil3" points="43.81,52.7 44.1,53.59 43.66,53.74 "/>
     <polygon class="fil3" points="44.7,53.35 43.78,53.35 43.78,53.82 "/>
     <polygon class="fil3" points="44.7,53.35 43.95,53.91 43.68,53.52 "/>
     <polygon class="fil3" points="42.92,53.35 43.7,53.91 43.95,53.52 "/>
     <polygon class="fil3" points="42.92,53.35 43.86,53.35 43.86,53.82 "/>
     <polygon class="fil3" points="44.36,54.4 44.08,53.52 43.63,53.66 "/>
     <polygon class="fil3" points="44.36,54.4 43.61,53.85 43.87,53.47 "/>
     <polygon class="fil3" points="43.26,54.4 44.02,53.85 43.74,53.47 "/>
     <polygon class="fil3" points="43.26,54.4 43.55,53.52 44,53.66 "/>
     <polygon class="fil3" points="46.35,48.51 46.11,49.25 46.49,49.37 "/>
     <polygon class="fil3" points="46.35,48.51 46.6,49.25 46.22,49.37 "/>
     <polygon class="fil3" points="47.09,49.05 46.3,49.05 46.3,49.43 "/>
     <polygon class="fil3" points="47.09,49.05 46.45,49.51 46.22,49.19 "/>
     <polygon class="fil3" points="45.61,49.05 46.24,49.51 46.47,49.19 "/>
     <polygon class="fil3" points="45.61,49.05 46.39,49.05 46.39,49.43 "/>
     <polygon class="fil3" points="46.81,49.92 46.56,49.18 46.2,49.3 "/>
     <polygon class="fil3" points="46.81,49.92 46.18,49.46 46.41,49.14 "/>
     <polygon class="fil3" points="45.88,49.92 46.52,49.46 46.29,49.14 "/>
     <polygon class="fil3" points="45.88,49.92 46.13,49.18 46.51,49.3 "/>
     <polygon class="fil3" points="43.81,46.55 43.56,47.28 43.94,47.4 "/>
     <polygon class="fil3" points="43.81,46.55 44.05,47.28 43.7,47.4 "/>
     <polygon class="fil3" points="44.55,47.08 43.78,47.08 43.78,47.47 "/>
     <polygon class="fil3" points="44.55,47.08 43.93,47.54 43.7,47.22 "/>
     <polygon class="fil3" points="43.08,47.08 43.72,47.54 43.93,47.22 "/>
     <polygon class="fil3" points="43.08,47.08 43.86,47.08 43.86,47.47 "/>
     <polygon class="fil3" points="44.28,47.95 44.04,47.21 43.66,47.33 "/>
     <polygon class="fil3" points="44.28,47.95 43.65,47.5 43.87,47.18 "/>
     <polygon class="fil3" points="43.36,47.95 43.99,47.5 43.76,47.18 "/>
     <polygon class="fil3" points="43.36,47.95 43.59,47.21 43.97,47.33 "/>
     <polygon class="fil3" points="41.6,48.67 41.41,49.26 41.71,49.36 "/>
     <polygon class="fil3" points="41.6,48.67 41.81,49.26 41.5,49.36 "/>
     <polygon class="fil3" points="42.2,49.09 41.58,49.09 41.58,49.4 "/>
     <polygon class="fil3" points="42.2,49.09 41.69,49.46 41.5,49.21 "/>
     <polygon class="fil3" points="41.02,49.09 41.52,49.46 41.69,49.21 "/>
     <polygon class="fil3" points="41.02,49.09 41.64,49.09 41.64,49.4 "/>
     <polygon class="fil3" points="41.98,49.8 41.79,49.2 41.49,49.3 "/>
     <polygon class="fil3" points="41.98,49.8 41.48,49.43 41.67,49.18 "/>
     <polygon class="fil3" points="41.25,49.8 41.75,49.43 41.57,49.18 "/>
     <polygon class="fil3" points="41.25,49.8 41.44,49.2 41.73,49.3 "/>
     <polygon class="fil3" points="42.72,50.36 42.58,50.79 42.79,50.85 "/>
     <polygon class="fil3" points="42.72,50.36 42.85,50.79 42.64,50.85 "/>
     <polygon class="fil3" points="43.14,50.67 42.69,50.67 42.69,50.89 "/>
     <polygon class="fil3" points="43.14,50.67 42.79,50.93 42.66,50.75 "/>
     <polygon class="fil3" points="42.28,50.67 42.66,50.93 42.79,50.75 "/>
     <polygon class="fil3" points="42.28,50.67 42.74,50.67 42.74,50.89 "/>
     <polygon class="fil3" points="42.97,51.18 42.83,50.75 42.62,50.81 "/>
     <polygon class="fil3" points="42.97,51.18 42.61,50.91 42.76,50.73 "/>
     <polygon class="fil3" points="42.45,51.18 42.81,50.91 42.67,50.73 "/>
     <polygon class="fil3" points="42.45,51.18 42.6,50.75 42.81,50.81 "/>
     <polygon class="fil3" points="50.38,57.77 50.13,58.52 50.51,58.65 "/>
     <polygon class="fil3" points="50.38,57.77 50.62,58.52 50.24,58.65 "/>
     <polygon class="fil3" points="51.11,58.31 50.33,58.31 50.33,58.71 "/>
     <polygon class="fil3" points="51.11,58.31 50.48,58.78 50.26,58.45 "/>
     <polygon class="fil3" points="49.63,58.31 50.26,58.78 50.5,58.45 "/>
     <polygon class="fil3" points="49.63,58.31 50.41,58.31 50.41,58.71 "/>
     <polygon class="fil3" points="50.83,59.19 50.59,58.44 50.22,58.57 "/>
     <polygon class="fil3" points="50.83,59.19 50.2,58.74 50.43,58.42 "/>
     <polygon class="fil3" points="49.91,59.19 50.54,58.74 50.31,58.42 "/>
     <polygon class="fil3" points="49.91,59.19 50.15,58.44 50.52,58.57 "/>
     <polygon class="fil3" points="52.25,56 52.06,56.59 52.34,56.69 "/>
     <polygon class="fil3" points="52.25,56 52.44,56.59 52.13,56.69 "/>
     <polygon class="fil3" points="52.84,56.44 52.21,56.44 52.21,56.73 "/>
     <polygon class="fil3" points="52.84,56.44 52.34,56.79 52.15,56.55 "/>
     <polygon class="fil3" points="51.64,56.44 52.15,56.79 52.34,56.55 "/>
     <polygon class="fil3" points="51.64,56.44 52.28,56.44 52.28,56.73 "/>
     <polygon class="fil3" points="52.62,57.12 52.42,56.53 52.13,56.63 "/>
     <polygon class="fil3" points="52.62,57.12 52.12,56.76 52.3,56.51 "/>
     <polygon class="fil3" points="51.89,57.12 52.39,56.76 52.19,56.51 "/>
     <polygon class="fil3" points="51.89,57.12 52.08,56.53 52.38,56.63 "/>
     <polygon class="fil3" points="48.64,55.46 48.45,56.05 48.74,56.15 "/>
     <polygon class="fil3" points="48.64,55.46 48.84,56.05 48.55,56.15 "/>
     <polygon class="fil3" points="49.23,55.89 48.61,55.89 48.61,56.21 "/>
     <polygon class="fil3" points="49.23,55.89 48.73,56.27 48.55,56 "/>
     <polygon class="fil3" points="48.04,55.89 48.55,56.27 48.73,56 "/>
     <polygon class="fil3" points="48.04,55.89 48.68,55.89 48.68,56.21 "/>
     <polygon class="fil3" points="49.01,56.59 48.82,56 48.52,56.1 "/>
     <polygon class="fil3" points="49.01,56.59 48.5,56.22 48.69,55.97 "/>
     <polygon class="fil3" points="48.27,56.59 48.78,56.22 48.59,55.97 "/>
     <polygon class="fil3" points="48.27,56.59 48.46,56 48.78,56.1 "/>
     <polygon class="fil3" points="35.02,54.49 34.74,55.38 35.17,55.53 "/>
     <polygon class="fil3" points="35.02,54.49 35.31,55.38 34.87,55.53 "/>
     <polygon class="fil3" points="35.93,55.15 34.98,55.15 34.98,55.61 "/>
     <polygon class="fil3" points="35.93,55.15 35.15,55.69 34.89,55.31 "/>
     <polygon class="fil3" points="34.12,55.15 34.9,55.69 35.16,55.31 "/>
     <polygon class="fil3" points="34.12,55.15 35.06,55.15 35.06,55.61 "/>
     <polygon class="fil3" points="35.57,56.19 35.29,55.3 34.85,55.44 "/>
     <polygon class="fil3" points="35.57,56.19 34.82,55.64 35.08,55.26 "/>
     <polygon class="fil3" points="34.47,56.19 35.23,55.64 34.95,55.26 "/>
     <polygon class="fil3" points="34.47,56.19 34.78,55.3 35.21,55.44 "/>
     <polygon class="fil3" points="43.81,60.62 43.72,60.93 43.86,60.98 "/>
     <polygon class="fil3" points="43.81,60.62 43.91,60.93 43.78,60.98 "/>
     <polygon class="fil3" points="44.12,60.85 43.79,60.85 43.79,61 "/>
     <polygon class="fil3" points="44.12,60.85 43.86,61.03 43.78,60.9 "/>
     <polygon class="fil3" points="43.52,60.85 43.78,61.03 43.86,60.9 "/>
     <polygon class="fil3" points="43.52,60.85 43.82,60.85 43.82,61 "/>
     <polygon class="fil3" points="43.99,61.19 43.91,60.9 43.76,60.95 "/>
     <polygon class="fil3" points="43.99,61.19 43.74,61.01 43.82,60.89 "/>
     <polygon class="fil3" points="43.63,61.19 43.87,61.01 43.79,60.89 "/>
     <polygon class="fil3" points="43.63,61.19 43.74,60.9 43.87,60.95 "/>
    </g>
   </g>
  </g>
  <path class="fil5" d="M43.81 0c24.2,0 43.81,19.61 43.81,43.81 0,24.2 -19.61,43.81 -43.81,43.81 -24.2,0 -43.81,-19.61 -43.81,-43.81 0,-24.2 19.61,-43.81 43.81,-43.81z"/>
 </g>
</svg>
