<?xml version="1.0" encoding="UTF-8"?>
<!DOCTYPE svg PUBLIC "-//W3C//DTD SVG 1.1//EN" "http://www.w3.org/Graphics/SVG/1.1/DTD/svg11.dtd">
<!-- Creator: CorelDRAW 2021 (64-Bit) -->
<svg xmlns="http://www.w3.org/2000/svg" xml:space="preserve" width="6.9067mm" height="6.9067mm" version="1.1" style="shape-rendering:geometricPrecision; text-rendering:geometricPrecision; image-rendering:optimizeQuality; fill-rule:evenodd; clip-rule:evenodd"
viewBox="0 0 211.34 211.34"
 xmlns:xlink="http://www.w3.org/1999/xlink"
 xmlns:xodm="http://www.corel.com/coreldraw/odm/2003">
 <defs>
  <style type="text/css">
   <![CDATA[
    .fil3 {fill:none}
    .fil1 {fill:#FEFEFE;fill-rule:nonzero}
    .fil0 {fill:#CD3539;fill-rule:nonzero}
    .fil2 {fill:#3B4367;fill-rule:nonzero}
   ]]>
  </style>
   <clipPath id="id0">
    <path d="M105.67 0c58.36,0 105.67,47.31 105.67,105.67 0,58.36 -47.31,105.67 -105.67,105.67 -58.36,0 -105.67,-47.31 -105.67,-105.67 0,-58.36 47.31,-105.67 105.67,-105.67z"/>
   </clipPath>
 </defs>
 <g id="Capa_x0020_1">
  <metadata id="CorelCorpID_0Corel-Layer"/>
  <g>
  </g>
  <g style="clip-path:url(#id0)">
   <g>
    <g id="_1708781863600">
     <polygon class="fil0" points="-75.49,211.34 286.83,211.34 286.83,195.08 -75.49,195.08 "/>
     <polygon class="fil1" points="-75.49,195.08 286.83,195.08 286.83,178.83 -75.49,178.83 "/>
     <polygon class="fil0" points="-75.49,178.84 286.83,178.84 286.83,162.59 -75.49,162.59 "/>
     <polygon class="fil1" points="-75.49,162.59 286.83,162.59 286.83,146.33 -75.49,146.33 "/>
     <polygon class="fil0" points="-75.49,146.33 286.83,146.33 286.83,130.06 -75.49,130.06 "/>
     <polygon class="fil1" points="-75.49,130.06 286.83,130.06 286.83,113.82 -75.49,113.82 "/>
     <polygon class="fil0" points="-75.49,113.82 286.83,113.82 286.83,97.54 -75.49,97.54 "/>
     <polygon class="fil1" points="-75.49,97.54 286.83,97.54 286.83,81.29 -75.49,81.29 "/>
     <polygon class="fil0" points="-75.49,81.3 286.83,81.3 286.83,65.05 -75.49,65.05 "/>
     <polygon class="fil1" points="-75.49,65.05 286.83,65.05 286.83,48.78 -75.49,48.78 "/>
     <polygon class="fil0" points="-75.49,48.78 286.83,48.78 286.83,32.53 -75.49,32.53 "/>
     <polygon class="fil1" points="-75.49,32.52 286.83,32.52 286.83,16.26 -75.49,16.26 "/>
     <polygon class="fil0" points="-75.49,16.27 286.83,16.27 286.83,0 -75.49,0 "/>
     <polygon class="fil2" points="-75.49,113.82 89.96,113.82 89.96,0 -75.49,0 "/>
     <polygon class="fil1" points="-60.54,12.54 -59.13,16.86 -54.59,16.86 -58.26,19.52 -56.87,23.81 -60.54,21.16 -64.21,23.81 -62.78,19.52 -66.45,16.86 -61.95,16.86 "/>
     <polygon class="fil1" points="-60.54,31.55 -59.13,35.85 -54.59,35.85 -58.26,38.49 -56.87,42.81 -60.54,40.15 -64.21,42.81 -62.78,38.49 -66.45,35.85 -61.95,35.85 "/>
     <polygon class="fil1" points="-60.54,50.55 -59.13,54.84 -54.59,54.84 -58.26,57.49 -56.87,61.81 -60.54,59.14 -64.21,61.81 -62.78,57.49 -66.45,54.84 -61.95,54.84 "/>
     <polygon class="fil1" points="-60.54,69.54 -59.13,73.84 -54.59,73.84 -58.26,76.5 -56.87,80.8 -60.54,78.14 -64.21,80.8 -62.78,76.5 -66.45,73.84 -61.95,73.84 "/>
     <polygon class="fil1" points="-60.54,88.53 -59.13,92.86 -54.59,92.86 -58.26,95.49 -56.87,99.79 -60.54,97.13 -64.21,99.79 -62.78,95.49 -66.45,92.86 -61.95,92.86 "/>
     <polygon class="fil1" points="-47.31,22.55 -45.96,26.87 -41.4,26.87 -45.05,29.53 -43.68,33.82 -47.31,31.17 -50.94,33.82 -49.57,29.53 -53.22,26.87 -48.69,26.87 "/>
     <polygon class="fil1" points="-47.31,41.56 -45.96,45.84 -41.4,45.84 -45.05,48.51 -43.68,52.81 -47.31,50.17 -50.94,52.81 -49.57,48.51 -53.22,45.84 -48.69,45.84 "/>
     <polygon class="fil1" points="-47.31,60.56 -45.96,64.85 -41.4,64.85 -45.05,67.51 -43.68,71.82 -47.31,69.15 -50.94,71.82 -49.57,67.51 -53.22,64.85 -48.69,64.85 "/>
     <polygon class="fil1" points="-47.31,79.56 -45.96,83.85 -41.4,83.85 -45.05,86.51 -43.68,90.79 -47.31,88.13 -50.94,90.79 -49.57,86.51 -53.22,83.85 -48.69,83.85 "/>
     <polygon class="fil1" points="-33.93,12.54 -32.52,16.86 -27.98,16.86 -31.65,19.52 -30.24,23.81 -33.93,21.16 -37.56,23.81 -36.17,19.52 -39.84,16.86 -35.32,16.86 "/>
     <polygon class="fil1" points="-33.93,31.55 -32.52,35.85 -27.98,35.85 -31.65,38.49 -30.24,42.81 -33.93,40.15 -37.56,42.81 -36.17,38.49 -39.84,35.85 -35.32,35.85 "/>
     <polygon class="fil1" points="-33.93,50.55 -32.52,54.84 -27.98,54.84 -31.65,57.49 -30.24,61.81 -33.93,59.14 -37.56,61.81 -36.17,57.49 -39.84,54.84 -35.32,54.84 "/>
     <polygon class="fil1" points="-33.93,69.54 -32.52,73.84 -27.98,73.84 -31.65,76.5 -30.24,80.8 -33.93,78.14 -37.56,80.8 -36.17,76.5 -39.84,73.84 -35.32,73.84 "/>
     <polygon class="fil1" points="-33.93,88.53 -32.52,92.86 -27.98,92.86 -31.65,95.49 -30.24,99.79 -33.93,97.13 -37.56,99.79 -36.17,95.49 -39.84,92.86 -35.32,92.86 "/>
     <polygon class="fil1" points="-20.7,22.55 -19.3,26.87 -14.75,26.87 -18.44,29.53 -17.03,33.82 -20.7,31.17 -24.35,33.82 -22.93,29.53 -26.62,26.87 -22.09,26.87 "/>
     <polygon class="fil1" points="-20.7,41.56 -19.3,45.84 -14.75,45.84 -18.44,48.51 -17.03,52.81 -20.7,50.17 -24.35,52.81 -22.93,48.51 -26.62,45.84 -22.09,45.84 "/>
     <polygon class="fil1" points="-20.7,60.56 -19.3,64.85 -14.75,64.85 -18.44,67.51 -17.03,71.82 -20.7,69.15 -24.35,71.82 -22.93,67.51 -26.62,64.85 -22.09,64.85 "/>
     <polygon class="fil1" points="-20.7,79.56 -19.3,83.85 -14.75,83.85 -18.44,86.51 -17.03,90.79 -20.7,88.13 -24.35,90.79 -22.93,86.51 -26.62,83.85 -22.09,83.85 "/>
     <polygon class="fil1" points="-7.28,12.54 -5.88,16.86 -1.39,16.86 -5.05,19.52 -3.6,23.81 -7.28,21.16 -10.95,23.81 -9.56,19.52 -13.19,16.86 -8.67,16.86 "/>
     <polygon class="fil1" points="-7.28,31.55 -5.88,35.85 -1.39,35.85 -5.05,38.49 -3.6,42.81 -7.28,40.15 -10.95,42.81 -9.56,38.49 -13.19,35.85 -8.67,35.85 "/>
     <polygon class="fil1" points="-7.28,50.55 -5.88,54.84 -1.39,54.84 -5.05,57.49 -3.6,61.81 -7.28,59.14 -10.95,61.81 -9.56,57.49 -13.19,54.84 -8.67,54.84 "/>
     <polygon class="fil1" points="-7.28,69.54 -5.88,73.84 -1.39,73.84 -5.05,76.5 -3.6,80.8 -7.28,78.14 -10.95,80.8 -9.56,76.5 -13.19,73.84 -8.67,73.84 "/>
     <polygon class="fil1" points="-7.28,88.53 -5.88,92.86 -1.39,92.86 -5.05,95.49 -3.6,99.79 -7.28,97.13 -10.95,99.79 -9.56,95.49 -13.19,92.86 -8.67,92.86 "/>
     <polygon class="fil1" points="5.95,22.55 7.35,26.87 11.86,26.87 8.21,29.53 9.58,33.82 5.95,31.17 2.3,33.82 3.67,29.53 0.03,26.87 4.54,26.87 "/>
     <polygon class="fil1" points="5.95,41.56 7.35,45.84 11.86,45.84 8.21,48.51 9.58,52.81 5.95,50.17 2.3,52.81 3.67,48.51 0.03,45.84 4.54,45.84 "/>
     <polygon class="fil1" points="5.95,60.56 7.35,64.85 11.86,64.85 8.21,67.51 9.58,71.82 5.95,69.15 2.3,71.82 3.67,67.51 0.03,64.85 4.54,64.85 "/>
     <polygon class="fil1" points="5.95,79.56 7.35,83.85 11.86,83.85 8.21,86.51 9.58,90.79 5.95,88.13 2.3,90.79 3.67,86.51 0.03,83.85 4.54,83.85 "/>
     <polygon class="fil1" points="19.32,12.54 20.73,16.86 25.24,16.86 21.6,19.52 23.01,23.81 19.32,21.16 15.69,23.81 17.06,19.52 13.41,16.86 17.92,16.86 "/>
     <polygon class="fil1" points="19.32,31.55 20.73,35.85 25.24,35.85 21.6,38.49 23.01,42.81 19.32,40.15 15.69,42.81 17.06,38.49 13.41,35.85 17.92,35.85 "/>
     <polygon class="fil1" points="19.32,50.55 20.73,54.84 25.24,54.84 21.6,57.49 23.01,61.81 19.32,59.14 15.69,61.81 17.06,57.49 13.41,54.84 17.92,54.84 "/>
     <polygon class="fil1" points="19.32,69.54 20.73,73.84 25.24,73.84 21.6,76.5 23.01,80.8 19.32,78.14 15.69,80.8 17.06,76.5 13.41,73.84 17.92,73.84 "/>
     <polygon class="fil1" points="19.32,88.53 20.73,92.86 25.24,92.86 21.6,95.49 23.01,99.79 19.32,97.13 15.69,99.79 17.06,95.49 13.41,92.86 17.92,92.86 "/>
     <polygon class="fil1" points="32.56,22.55 33.96,26.87 38.51,26.87 34.84,29.53 36.23,33.82 32.56,31.17 28.91,33.82 30.33,29.53 26.66,26.87 31.19,26.87 "/>
     <polygon class="fil1" points="32.56,41.56 33.96,45.84 38.51,45.84 34.84,48.51 36.23,52.81 32.56,50.17 28.91,52.81 30.33,48.51 26.66,45.84 31.19,45.84 "/>
     <polygon class="fil1" points="32.56,60.56 33.96,64.85 38.51,64.85 34.84,67.51 36.23,71.82 32.56,69.15 28.91,71.82 30.33,67.51 26.66,64.85 31.19,64.85 "/>
     <polygon class="fil1" points="32.56,79.56 33.96,83.85 38.51,83.85 34.84,86.51 36.23,90.79 32.56,88.13 28.91,90.79 30.33,86.51 26.66,83.85 31.19,83.85 "/>
     <polygon class="fil1" points="45.97,12.54 47.38,16.86 51.9,16.86 48.25,19.52 49.62,23.81 45.97,21.16 42.34,23.81 43.71,19.52 40.07,16.86 44.58,16.86 "/>
     <polygon class="fil1" points="45.97,31.55 47.38,35.85 51.9,35.85 48.25,38.49 49.62,42.81 45.97,40.15 42.34,42.81 43.71,38.49 40.07,35.85 44.58,35.85 "/>
     <polygon class="fil1" points="45.97,50.55 47.38,54.84 51.9,54.84 48.25,57.49 49.62,61.81 45.97,59.14 42.34,61.81 43.71,57.49 40.07,54.84 44.58,54.84 "/>
     <polygon class="fil1" points="45.97,69.54 47.38,73.84 51.9,73.84 48.25,76.5 49.62,80.8 45.97,78.14 42.34,80.8 43.71,76.5 40.07,73.84 44.58,73.84 "/>
     <polygon class="fil1" points="45.97,88.53 47.38,92.86 51.9,92.86 48.25,95.49 49.62,99.79 45.97,97.13 42.34,99.79 43.71,95.49 40.07,92.86 44.58,92.86 "/>
     <polygon class="fil1" points="59.22,22.55 60.59,26.87 65.12,26.87 61.49,29.53 62.84,33.82 59.22,31.17 55.52,33.82 56.94,29.53 53.31,26.87 57.8,26.87 "/>
     <polygon class="fil1" points="59.22,41.56 60.59,45.84 65.12,45.84 61.49,48.51 62.84,52.81 59.22,50.17 55.52,52.81 56.94,48.51 53.31,45.84 57.8,45.84 "/>
     <polygon class="fil1" points="59.22,60.56 60.59,64.85 65.12,64.85 61.49,67.51 62.84,71.82 59.22,69.15 55.52,71.82 56.94,67.51 53.31,64.85 57.8,64.85 "/>
     <polygon class="fil1" points="59.22,79.56 60.59,83.85 65.12,83.85 61.49,86.51 62.84,90.79 59.22,88.13 55.52,90.79 56.94,86.51 53.31,83.85 57.8,83.85 "/>
     <polygon class="fil1" points="72.58,12.54 74.01,16.86 78.5,16.86 74.86,19.52 76.27,23.81 72.58,21.16 68.95,23.81 70.32,19.52 66.68,16.86 71.19,16.86 "/>
     <polygon class="fil1" points="72.58,31.55 74.01,35.85 78.5,35.85 74.86,38.49 76.27,42.81 72.58,40.15 68.95,42.81 70.32,38.49 66.68,35.85 71.19,35.85 "/>
     <polygon class="fil1" points="72.58,50.55 74.01,54.84 78.5,54.84 74.86,57.49 76.27,61.81 72.58,59.14 68.95,61.81 70.32,57.49 66.68,54.84 71.19,54.84 "/>
     <polygon class="fil1" points="72.58,69.54 74.01,73.84 78.5,73.84 74.86,76.5 76.27,80.8 72.58,78.14 68.95,80.8 70.32,76.5 66.68,73.84 71.19,73.84 "/>
     <polygon class="fil1" points="72.58,88.53 74.01,92.86 78.5,92.86 74.86,95.49 76.27,99.79 72.58,97.13 68.95,99.79 70.32,95.49 66.68,92.86 71.19,92.86 "/>
    </g>
   </g>
  </g>
  <path class="fil3" d="M105.67 0c58.36,0 105.67,47.31 105.67,105.67 0,58.36 -47.31,105.67 -105.67,105.67 -58.36,0 -105.67,-47.31 -105.67,-105.67 0,-58.36 47.31,-105.67 105.67,-105.67z"/>
 </g>
</svg>
