<?xml version="1.0" encoding="UTF-8"?>
<!DOCTYPE svg PUBLIC "-//W3C//DTD SVG 1.1//EN" "http://www.w3.org/Graphics/SVG/1.1/DTD/svg11.dtd">
<!-- Creator: CorelDRAW 2021 (64-Bit) -->
<svg xmlns="http://www.w3.org/2000/svg" xml:space="preserve" width="123.214mm" height="59.3328mm" version="1.1" style="shape-rendering:geometricPrecision; text-rendering:geometricPrecision; image-rendering:optimizeQuality; fill-rule:evenodd; clip-rule:evenodd"
viewBox="0 0 1685.32 811.55"
 xmlns:xlink="http://www.w3.org/1999/xlink"
 xmlns:xodm="http://www.corel.com/coreldraw/odm/2003">
 <defs>
  <style type="text/css">
   <![CDATA[
    .str0 {stroke:#FEFEFE;stroke-width:1.04;stroke-miterlimit:22.9256}
    .fil0 {fill:#FEFEFE}
    .fil1 {fill:#FEFEFE;fill-rule:nonzero}
    .fil2 {fill:#FEFEFE;fill-rule:nonzero}
   ]]>
  </style>
 </defs>
 <g id="Capa_x0020_1">
  <metadata id="CorelCorpID_0Corel-Layer"/>
  <path class="fil0" d="M298.93 425.26l-11.44 11.74c15.89,0.2 24.8,0.1 40.38,3.75 84.3,19.94 132.27,108.09 103.73,187.33 -24.39,68.01 -92.9,107.18 -163.44,93.61 -10.93,-2.13 -22.97,-6.17 -33.3,-10.93 -59,-28.74 -77.42,-74.18 -82.58,-138.45 -17.81,21.46 -35.83,31.17 -49.39,69.83 -3.75,10.73 -1.32,12.75 3.14,22.77 2.83,6.38 6.68,13.76 10.12,19.84 8.3,14.27 16.5,22.97 25.2,35.22l-13.46 20.04 23.99 22.27 19.73 -14.88 17.1 12.14 -6.68 22.87 29.85 14.47 13.16 -20.54 20.34 6.27 0.4 25.3 32.49 3.64 7.08 -23.07 21.25 0.1 7.29 22.87 32.49 -4.55 0.3 -24.39 20.34 -5.77 14.17 20.14 29.04 -14.37 -7.28 -23.28 17.71 -12.14 19.43 14.68 23.99 -21.56 -13.36 -20.14 13.66 -16.9 21.96 9.01 16.9 -28.44 -18.52 -15.28 7.79 -20.14 25 1.72 7.08 -30.66 -22.47 -9.61 1.82 -21.86 23.99 -6.88 -1.62 -31.88 -24.69 -1.21 -4.76 -22.67 21.25 -11.64 -12.14 -30.26 -23.18 5.26 -11.84 -20.24 16.29 -17.51 -17.51 -24.69 -22.87 11.44 -16.9 -16.39 10.02 -20.95 -26.21 -18.22 -16.6 17.1 -20.85 -9.82 2.94 -24.29 -24.9 -7.59c-4.55,5.67 -7.99,12.75 -12.45,18.82 -12.85,17.1 -27.22,34.41 -43.01,48.98z"/>
  <path class="fil0" d="M297.82 548.52c0.3,-2.13 0.51,-4.76 0.1,-7.39l-10.22 -0.1c-5.26,22.77 -24.69,35.32 -46.25,19.73 -4.25,-30.56 30.06,-45.34 44.63,-38.76 4.96,1.42 11.03,3.95 14.57,7.08 6.58,-1.42 6.27,1.01 13.56,-3.14 8.7,-8.1 6.38,-16.5 -1.32,-23.58 50.1,-2.94 90.58,108.69 55.06,116.28 -26.82,5.57 -59.2,-19.43 -69.83,-23.58 -12.45,43.72 -28.94,42.71 -65.07,34.81 -5.06,16.7 -4.86,24.49 -30.06,35.83 2.53,4.05 10.12,9.51 14.78,11.44 9.11,-1.32 21.25,-18.22 25.81,-26.41 35.32,2.53 47.67,-5.16 63.35,-26.82 18.92,6.58 51.82,24.8 76.41,9.01 21.46,-13.76 18.12,-54.14 10.93,-75.7 -8.2,-24.49 -21.56,-41.29 -39.87,-57.38 -17.41,-15.28 -52.42,-27.93 -67.1,-3.14 -12.25,0.1 -15.18,-2.13 -27.63,3.44 -42.3,18.92 -39.57,64.16 -31.58,70.44 24.09,19.03 63.96,13.06 69.73,-22.06l-0 -0z"/>
  <path class="fil0" d="M332.84 537.69c-2.13,-3.54 -10.12,-4.76 -14.17,-1.52 -2.13,1.72 -3.24,7.59 -1.82,10.22 5.67,10.83 23.88,4.35 15.99,-8.7l0 0z"/>
  <path class="fil1" d="M614.79 480.92l0 -316.87 42 0 0 279.62 155.85 0 0 37.24 -197.85 0 0 0zm213.13 0l121.65 -316.87 46.05 0 129.04 316.87 -47.77 0 -36.64 -96.04 -133.49 0 -34.31 96.04 -44.53 0 -0 0zm91.19 -130.15l107.98 0 -32.99 -87.85c-10.02,-26.72 -17.51,-48.78 -22.77,-66.19 -4.35,20.65 -10.12,40.99 -17.51,61.03l-34.71 93.01 0 0zm237.93 130.15l0 -316.87 62.85 0 74.89 224.27c6.98,20.85 11.94,36.53 15.18,46.96 3.54,-11.54 9.21,-28.54 16.9,-50.9l76.31 -220.32 56.17 0 0 316.87 -40.28 0 0 -265.15 -92.5 265.15 -37.85 0 -91.39 -270.01 0 270.01 -40.28 0 -0 0z"/>
  <path class="fil0" d="M1566.81 443.68l-79.04 0 0 37.24 79.04 0c20.14,0 37.24,-1.82 51.11,-5.36 13.87,-3.54 25.5,-8.7 34.71,-15.59 9.21,-6.98 17,-16.8 23.28,-29.55 6.17,-12.75 9.41,-26.51 9.41,-41.39 0,-18.52 -5.16,-34.51 -15.48,-47.97 -10.32,-13.56 -25,-23.18 -44.23,-28.74 14.88,-7.39 25.91,-17.1 33.2,-29.05 7.29,-11.94 11.03,-24.69 11.03,-38.15 0,-14.68 -4.15,-28.54 -12.45,-41.9 -8.3,-13.36 -19.73,-23.18 -34.31,-29.65 -14.68,-6.38 -34.11,-9.51 -58.29,-9.51l-77.02 0 0 37.14 63.45 0c22.77,0 38.86,1.52 48.17,4.45 9.41,2.94 16.6,8.5 21.66,16.5 5.06,7.99 7.59,17.2 7.59,27.83 0,11.13 -2.73,20.34 -8.1,27.73 -5.36,7.39 -13.46,12.65 -24.09,15.79 -8.1,2.43 -21.46,3.75 -39.98,3.75l-68.72 0 0 37.14 73.47 0c20.14,0 35.62,1.82 46.35,5.36 10.73,3.54 19.13,9.61 25.2,18.42 6.07,8.8 9.11,19.03 9.11,30.87 0,10.12 -2.02,19.03 -6.27,26.82 -4.15,7.69 -9.51,13.66 -15.99,17.71 -6.48,4.05 -14.57,6.88 -24.19,8.6 -5.57,1.01 -15.08,1.52 -28.64,1.52l-0 0z"/>
  <path class="fil2 str0" d="M629.12 665.6l0 -132.23 17.97 0 0 117.02 94.41 0 0 15.21 -112.39 0zm131.43 0l0 -102.3 104.87 0 0 14.97 -87.44 0 0 25.51 57.4 0 0 14.72 -57.4 0 0 32.38 92.27 0 0 14.72 -109.7 0zm153.74 -39.5l43.72 0 -21.73 -39.21 -21.99 39.21zm-40.55 39.5l56.91 -102.3 11 0 57.35 102.3 -18.73 0 -14.53 -26.01 -59.05 0 -14.44 26.01 -18.51 0zm159.64 -59.62l59.46 0c6.03,0 10.64,-1.19 13.81,-3.6 3.17,-2.41 4.78,-5.85 4.78,-10.34 0,-4.46 -1.61,-7.89 -4.78,-10.22 -3.17,-2.37 -7.78,-3.56 -13.81,-3.56l-59.46 0 0 27.72zm0 14.97l0 44.65 -17.44 0 0 -102.06 76.89 0c11.44,0 20.38,2.53 26.87,7.56 6.48,5.03 9.7,12.02 9.7,20.98 0,7.24 -2.55,13.53 -7.69,18.85 -5.1,5.32 -11.76,8.59 -19.98,9.77l31.16 44.9 -19 0 -31.74 -44.65 -48.77 0zm127.94 44.65l0 -102.3 9.16 0 71.04 71.88 0 -71.88 17.17 0 0 102.3 -9.16 0 -71.03 -71.64 0 71.64 -17.17 0zm135.95 0l0 -102.55 17.7 0 0 102.55 -17.7 0zm56.6 0l0 -102.3 9.16 0 71.03 71.88 0 -71.88 17.17 0 0 102.3 -9.16 0 -71.03 -71.64 0 71.64 -17.17 0zm211.58 -39.74l0 -14.72 46.13 0 0 30.87c-6.48,8.75 -14.89,15.42 -25.3,19.95 -10.37,4.54 -22.44,6.83 -36.16,6.83 -20.61,0 -37.46,-5.07 -50.56,-15.25 -13.1,-10.18 -19.67,-23.1 -19.67,-38.72 0,-15.66 6.57,-28.58 19.76,-38.85 13.19,-10.26 30,-15.37 50.47,-15.37 12.92,0 24.36,2.04 34.38,6.09 10.01,4.09 18.33,10.06 24.94,17.95l-13.46 8.83c-4.74,-5.64 -11.13,-10.1 -19.18,-13.33 -8.09,-3.23 -16.99,-4.83 -26.69,-4.83 -15.29,0 -27.81,3.72 -37.6,11.12 -9.79,7.44 -14.66,16.81 -14.66,28.13 0,11.33 4.87,20.69 14.62,28.13 9.75,7.4 22.27,11.12 37.64,11.12 9.61,0 18.51,-1.59 26.69,-4.78 8.14,-3.19 13.86,-7.24 17.08,-12.18l0 -11 -28.43 0z"/>
  <path class="fil0" d="M12.12 522.21c-18.01,-102.11 151.5,-218.8 216.78,-290.25 68.21,-70.84 139.16,-122.05 116.28,-231.96 -16.9,151.4 -419.39,328.3 -333.06,522.21z"/>
  <path class="fil0" d="M344.37 111.32c-16.9,151.4 -444.59,356.54 -303.11,520.59 -46.96,-102.11 130.96,-222.95 196.23,-294.4 68.21,-70.94 128.93,-106.37 106.87,-226.19z"/>
  <path class="fil0" d="M344.88 227.3c-16.9,151.4 -445.4,352.59 -246.03,475.96 -71.25,-90.37 58.19,-162.74 156.16,-269.91 79.14,-82.18 101.1,-96.04 89.87,-206.05z"/>
 </g>
</svg>
