<?xml version="1.0" encoding="UTF-8"?>
<!DOCTYPE svg PUBLIC "-//W3C//DTD SVG 1.1//EN" "http://www.w3.org/Graphics/SVG/1.1/DTD/svg11.dtd">
<!-- Creator: CorelDRAW 2021 (64-Bit) -->
<svg xmlns="http://www.w3.org/2000/svg" xml:space="preserve" width="6.9067mm" height="6.9067mm" version="1.1" style="shape-rendering:geometricPrecision; text-rendering:geometricPrecision; image-rendering:optimizeQuality; fill-rule:evenodd; clip-rule:evenodd"
viewBox="0 0 57.05 57.05"
 xmlns:xlink="http://www.w3.org/1999/xlink"
 xmlns:xodm="http://www.corel.com/coreldraw/odm/2003">
 <defs>
  <style type="text/css">
   <![CDATA[
    .fil2 {fill:none}
    .fil1 {fill:#FEFEFE;fill-rule:nonzero}
    .fil0 {fill:#BB3438;fill-rule:nonzero}
   ]]>
  </style>
   <clipPath id="id0">
    <path d="M28.53 0c15.75,0 28.53,12.77 28.53,28.53 0,15.76 -12.77,28.53 -28.53,28.53 -15.76,0 -28.53,-12.77 -28.53,-28.53 0,-15.75 12.77,-28.53 28.53,-28.53z"/>
   </clipPath>
 </defs>
 <g id="Capa_x0020_1">
  <metadata id="CorelCorpID_0Corel-Layer"/>
  <g>
  </g>
  <g style="clip-path:url(#id0)">
   <g>
    <g id="_1708519142096">
     <polygon class="fil0" points="-20.38,57.05 77.43,57.05 77.43,0 -20.38,0 "/>
     <polygon class="fil1" points="12.23,57.05 44.83,57.05 44.83,0 12.23,0 "/>
    </g>
   </g>
  </g>
  <path class="fil2" d="M28.53 0c15.75,0 28.53,12.77 28.53,28.53 0,15.76 -12.77,28.53 -28.53,28.53 -15.76,0 -28.53,-12.77 -28.53,-28.53 0,-15.75 12.77,-28.53 28.53,-28.53z"/>
 </g>
</svg>
