<?xml version="1.0" encoding="UTF-8"?>
<!DOCTYPE svg PUBLIC "-//W3C//DTD SVG 1.1//EN" "http://www.w3.org/Graphics/SVG/1.1/DTD/svg11.dtd">
<!-- Creator: CorelDRAW 2021 (64-Bit) -->
<svg xmlns="http://www.w3.org/2000/svg" xml:space="preserve" width="27.0932mm" height="35.2212mm" version="1.1" style="shape-rendering:geometricPrecision; text-rendering:geometricPrecision; image-rendering:optimizeQuality; fill-rule:evenodd; clip-rule:evenodd"
viewBox="0 0 6561.32 8529.73"
 xmlns:xlink="http://www.w3.org/1999/xlink"
 xmlns:xodm="http://www.corel.com/coreldraw/odm/2003">
 <defs>
  <style type="text/css">
   <![CDATA[
    .fil0 {fill:black}
    .fil1 {fill:black}
   ]]>
  </style>
 </defs>
 <g id="Capa_x0020_1">
  <metadata id="CorelCorpID_0Corel-Layer"/>
  <path class="fil0" d="M328.05 7812.09l0 -7094.45c0,-257.92 131.67,-389.56 389.59,-389.56l3875.3 0 0 1045.69c0,284.68 309.94,594.64 594.61,594.64l1045.72 0 0 5843.68c0,257.92 -131.67,389.59 -389.59,389.59l-5126.04 0c-257.92,0 -389.59,-131.67 -389.59,-389.59zm4592.94 -7237.99l1071.29 1061.14c-1174,5.09 -1071.29,107.79 -1071.29,-1061.14zm-4920.99 20.51l0 7340.5c0,284.68 309.94,594.61 594.61,594.61l5372.09 0c153.22,0 324.56,-107.57 405.79,-188.82 81.25,-81.23 188.82,-252.57 188.82,-405.79l0 -6171.76c0,-68.85 -803.98,-834.76 -866.29,-897.07 -60.35,-60.33 -829.19,-866.29 -897.07,-866.29l-4203.35 0c-284.68,0 -594.61,309.94 -594.61,594.61z"/>
  <g id="_2059617446560">
   <path class="fil1" d="M4233.02 4430.78c0,93.82 255.57,518.35 -96.65,1044.6 -95.59,142.76 -269.08,291.92 -428.02,358.11 -134.36,55.94 -271.5,93.82 -427.66,93.82l0 -317.44c0,-45.94 -37.49,-83.14 -90.69,-83.14 -57.64,0 -251.45,217.43 -300.44,266.42 -49.57,49.57 -266.44,242.9 -266.44,300.44 0,75.66 47.22,96.34 130.39,179.5l279.66 279.66c43.16,43.16 100.04,122.83 164.39,122.83 39.55,0 83.14,-33.76 83.14,-75.61l0 -324.98c561.99,0 1014.04,-308.73 1257.26,-791.07 82.49,-163.64 126.61,-352.39 133.44,-543.1l0 -104.43c-4.36,-123.46 -24.27,-245.98 -59.5,-361.23 -12.84,-42.04 -39.64,-118.96 -63.4,-148.24 -114.84,-141.33 -315.46,-41.46 -315.46,103.85z"/>
   <path class="fil1" d="M3280.69 3176.11l0 317.44c-515.5,0 -948.85,264.53 -1202.21,687.37 -115.88,193.35 -179.5,418.14 -188.51,646.42l0 112.49c4.7,119.49 24.39,238.66 59.5,353.53 32.4,106.1 77.86,218.25 205.03,218.25 84.33,0 173.83,-81.47 173.83,-181.39 0,-37.08 -19.16,-72.82 -29.13,-99.36 -118.64,-315.77 -60.54,-659.28 125.81,-937.71 37.49,-55.99 73.84,-97.11 120.63,-143.9 192.51,-192.51 459.04,-308.02 735.05,-308.02l0 317.44c0,45.94 37.49,83.14 90.69,83.14 55.85,0 252.64,-218.64 300.44,-266.39 49.55,-49.6 266.44,-242.9 266.44,-300.44 0,-75.66 -47.22,-96.39 -130.41,-179.53l-279.64 -279.64c-43.16,-43.18 -100.07,-122.83 -164.39,-122.83 -44.17,0 -83.14,38.97 -83.14,83.14z"/>
  </g>
 </g>
</svg>
