<?xml version="1.0" encoding="UTF-8"?>
<!DOCTYPE svg PUBLIC "-//W3C//DTD SVG 1.1//EN" "http://www.w3.org/Graphics/SVG/1.1/DTD/svg11.dtd">
<!-- Creator: CorelDRAW 2021 (64-Bit) -->
<svg xmlns="http://www.w3.org/2000/svg" xml:space="preserve" width="27.0932mm" height="35.2212mm" version="1.1" style="shape-rendering:geometricPrecision; text-rendering:geometricPrecision; image-rendering:optimizeQuality; fill-rule:evenodd; clip-rule:evenodd"
viewBox="0 0 499.01 648.72"
 xmlns:xlink="http://www.w3.org/1999/xlink"
 xmlns:xodm="http://www.corel.com/coreldraw/odm/2003">
 <defs>
  <style type="text/css">
   <![CDATA[
    .str0 {stroke:black;stroke-width:24.95;stroke-miterlimit:22.9256}
    .fil1 {fill:none}
    .fil0 {fill:black}
   ]]>
  </style>
 </defs>
 <g id="Capa_x0020_1">
  <metadata id="CorelCorpID_0Corel-Layer"/>
  <path class="fil0" d="M24.95 594.14l0 -539.56c0,-19.62 10.01,-29.63 29.63,-29.63l294.73 0 0 79.53c0,21.65 23.57,45.22 45.22,45.22l79.53 0 0 444.43c0,19.62 -10.01,29.63 -29.63,29.63l-389.85 0c-19.62,0 -29.63,-10.01 -29.63,-29.63zm349.31 -550.48l81.48 80.7c-89.29,0.39 -81.48,8.2 -81.48,-80.7zm-374.26 1.56l0 558.27c0,21.65 23.57,45.22 45.22,45.22l408.57 0c11.65,0 24.68,-8.18 30.86,-14.36 6.18,-6.18 14.36,-19.21 14.36,-30.86l0 -469.39c0,-5.24 -61.15,-63.49 -65.88,-68.23 -4.59,-4.59 -63.06,-65.88 -68.23,-65.88l-319.68 0c-21.65,0 -45.22,23.57 -45.22,45.22z"/>
  <path class="fil1 str0" d="M165.39 494.11c26.19,-45.24 85.02,-191.46 87.81,-213.13 2.79,-21.67 -7.89,-34.19 -18.64,-33.72 -10.75,0.47 -24.09,13.24 -17.12,37.33 6.97,24.08 92.9,134.86 120.78,152.93 27.88,18.06 48.38,1.85 48.38,-11.7 0,-13.54 -24.36,-14.18 -41.41,-12.83 -17.05,1.35 -167.71,41.78 -194.65,54.56 -26.95,12.78 -37.42,24.74 -38.11,36.19 -0.69,11.44 26.78,35.61 52.96,-9.63z"/>
 </g>
</svg>
