<?xml version="1.0" encoding="UTF-8"?>
<!DOCTYPE svg PUBLIC "-//W3C//DTD SVG 1.1//EN" "http://www.w3.org/Graphics/SVG/1.1/DTD/svg11.dtd">
<!-- Creator: CorelDRAW 2021 (64-Bit) -->
<svg xmlns="http://www.w3.org/2000/svg" xml:space="preserve" width="27.0932mm" height="35.2212mm" version="1.1" style="shape-rendering:geometricPrecision; text-rendering:geometricPrecision; image-rendering:optimizeQuality; fill-rule:evenodd; clip-rule:evenodd"
viewBox="0 0 1293.05 1680.97"
 xmlns:xlink="http://www.w3.org/1999/xlink"
 xmlns:xodm="http://www.corel.com/coreldraw/odm/2003">
 <defs>
  <style type="text/css">
   <![CDATA[
    .str0 {stroke:black;stroke-width:64.65;stroke-miterlimit:22.9256}
    .str1 {stroke:black;stroke-width:64.65;stroke-linejoin:round;stroke-miterlimit:22.9256}
    .fil2 {fill:none}
    .fil0 {fill:black}
    .fil1 {fill:black}
   ]]>
  </style>
 </defs>
 <g id="Capa_x0020_1">
  <metadata id="CorelCorpID_0Corel-Layer"/>
  <path class="fil0" d="M64.65 1539.54l0 -1398.11c0,-50.83 25.95,-76.77 76.78,-76.77l763.71 0 0 206.08c0,56.1 61.08,117.19 117.18,117.19l206.08 0 0 1151.62c0,50.83 -25.95,76.78 -76.78,76.78l-1010.2 0c-50.83,0 -76.78,-25.95 -76.78,-76.78zm905.14 -1426.4l211.12 209.12c-231.36,1 -211.12,21.24 -211.12,-209.12zm-969.79 4.04l0 1446.6c0,56.1 61.08,117.18 117.18,117.18l1058.69 0c30.2,0 63.96,-21.2 79.97,-37.21 16.01,-16.01 37.21,-49.77 37.21,-79.97l0 -1216.28c0,-13.57 -158.44,-164.51 -170.72,-176.79 -11.89,-11.89 -163.41,-170.72 -176.79,-170.72l-828.36 0c-56.1,0 -117.18,61.08 -117.18,117.18z"/>
  <path class="fil1" d="M287.99 1222.54l723.3 0c32.54,0 32.54,64.65 0,64.65l-723.3 0c-40.84,0 -40.84,-64.65 0,-64.65z"/>
  <circle class="fil2 str0" cx="517.17" cy="756.3" r="108.04"/>
  <polygon class="fil2 str1" points="257.65,1255.31 461.75,1000.34 604.62,1118.65 776.13,882.02 1035.4,1255.31 "/>
 </g>
</svg>
