<?xml version="1.0" encoding="UTF-8"?>
<!DOCTYPE svg PUBLIC "-//W3C//DTD SVG 1.1//EN" "http://www.w3.org/Graphics/SVG/1.1/DTD/svg11.dtd">
<!-- Creator: CorelDRAW 2021 (64-Bit) -->
<svg xmlns="http://www.w3.org/2000/svg" xml:space="preserve" width="31.7357mm" height="35.2212mm" version="1.1" style="shape-rendering:geometricPrecision; text-rendering:geometricPrecision; image-rendering:optimizeQuality; fill-rule:evenodd; clip-rule:evenodd"
viewBox="0 0 4919.57 5459.88"
 xmlns:xlink="http://www.w3.org/1999/xlink"
 xmlns:xodm="http://www.corel.com/coreldraw/odm/2003">
 <defs>
  <style type="text/css">
   <![CDATA[
    .str0 {stroke:black;stroke-width:210;stroke-miterlimit:22.9256}
    .fil3 {fill:none}
    .fil0 {fill:black}
    .fil1 {fill:black}
    .fil2 {fill:black;fill-rule:nonzero}
   ]]>
  </style>
 </defs>
 <g id="Capa_x0020_1">
  <metadata id="CorelCorpID_0Corel-Layer"/>
  <g id="_3036646017920">
   <path class="fil0" d="M929.65 5000.52l0 -639.68 -209.99 0 0 718.43c0,182.22 198.39,380.61 380.61,380.61l3438.68 0c98.08,0 207.75,-68.86 259.75,-120.87 52.01,-51.99 120.87,-161.67 120.87,-259.75l0 -3950.55c0,-44.07 -514.63,-534.33 -554.51,-574.21 -38.63,-38.61 -530.76,-554.51 -574.21,-554.51l-2690.57 0c-182.22,0 -380.61,198.39 -380.61,380.61l0 1520.38 209.99 0 0 -1441.63c0,-165.09 84.28,-249.36 249.38,-249.36l2480.58 0 0 669.35c0,182.22 198.39,380.63 380.61,380.63l669.36 0 0 3740.54c0,165.09 -84.28,249.38 -249.38,249.38l-3281.18 0c-165.09,0 -249.38,-84.28 -249.38,-249.38zm2939.94 -4633.04l685.73 679.24c-751.48,3.26 -685.73,69 -685.73,-679.24z"/>
   <g>
    <path class="fil1" d="M2567.11 4063.46l1437.29 0c105.71,0 105.71,209.99 0,209.99l-1461.7 0c15.5,-26.24 24.42,-56.8 24.42,-89.34l0 -120.65z"/>
    <path class="fil1" d="M3237.64 2720.39l765.44 0c0,422.75 -342.7,765.44 -765.44,765.44 -288.78,0 -540.17,-159.93 -670.53,-396.05l0 -738.78c130.35,-236.12 381.74,-396.05 670.53,-396.05l0 765.44zm514.38 210l-724.38 0 0 -724.38c-68.95,28.17 -130.97,69.79 -182.78,121.6 -100.48,100.5 -162.66,239.38 -162.66,392.78 0,153.39 62.18,292.28 162.66,392.78 100.5,100.48 239.39,162.66 392.78,162.66 153.4,0 292.28,-62.18 392.78,-162.66 51.81,-51.81 93.43,-113.83 121.6,-182.78z"/>
    <path class="fil1" d="M3318.25 2639.78l0 -765.44c422.75,0 765.44,342.7 765.44,765.44l-765.44 0zm210 -514.38l0 304.38 304.38 0c-28.17,-68.95 -69.79,-130.97 -121.6,-182.78 -51.81,-51.81 -113.83,-93.43 -182.78,-121.6z"/>
    <path class="fil1" d="M2567.11 3675.55l1437.29 0c105.71,0 105.71,209.99 0,209.99l-1437.29 0 0 -209.99z"/>
   </g>
  </g>
  <g id="_3036646018544">
   <path class="fil2" d="M815.05 3811.65l0 -1361.47 440.82 0c167.02,0 275.71,6.67 326.43,20.29 77.96,20.6 143.24,64.97 195.85,133.42 52.61,68.46 78.9,156.86 78.9,265.25 0,83.66 -15.21,153.7 -45.31,210.75 -30.43,57.05 -68.77,101.74 -115.35,134.37 -46.6,32.32 -94.13,53.88 -142.31,64.35 -65.6,12.99 -160.35,19.64 -284.6,19.64l-178.73 0 0 513.4 -275.71 0zm275.71 -1131.38l0 387.9 149.9 0c108.08,0 180.01,-7.3 216.45,-21.56 36.44,-14.26 64.97,-36.43 85.57,-67.18 20.6,-30.41 31.07,-65.59 31.07,-106.16 0,-49.76 -14.59,-90.64 -43.42,-122.96 -29.16,-32.34 -65.6,-52.61 -110.29,-60.84 -32.63,-6.03 -98.23,-9.19 -197.12,-9.19l-132.15 0z"/>
   <rect class="fil3 str0" x="105" y="1900.98" width="2462.1" height="2459.85" rx="175.75" ry="176.75"/>
  </g>
 </g>
</svg>
