<?xml version="1.0" encoding="UTF-8"?>
<!DOCTYPE svg PUBLIC "-//W3C//DTD SVG 1.1//EN" "http://www.w3.org/Graphics/SVG/1.1/DTD/svg11.dtd">
<!-- Creator: CorelDRAW 2021 (64-Bit) -->
<svg xmlns="http://www.w3.org/2000/svg" xml:space="preserve" width="27.0932mm" height="35.2212mm" version="1.1" style="shape-rendering:geometricPrecision; text-rendering:geometricPrecision; image-rendering:optimizeQuality; fill-rule:evenodd; clip-rule:evenodd"
viewBox="0 0 927.49 1205.74"
 xmlns:xlink="http://www.w3.org/1999/xlink"
 xmlns:xodm="http://www.corel.com/coreldraw/odm/2003">
 <defs>
  <style type="text/css">
   <![CDATA[
    .fil0 {fill:black}
    .fil1 {fill:black}
   ]]>
  </style>
 </defs>
 <g id="Capa_x0020_1">
  <metadata id="CorelCorpID_0Corel-Layer"/>
  <path class="fil0" d="M46.37 1104.29l0 -1002.85c0,-36.46 18.61,-55.07 55.07,-55.07l547.8 0 0 147.82c0,40.24 43.81,84.06 84.05,84.06l147.82 0 0 826.04c0,36.46 -18.61,55.07 -55.07,55.07l-724.6 0c-36.46,0 -55.07,-18.61 -55.07,-55.07zm649.24 -1023.14l151.43 150c-165.95,0.72 -151.43,15.24 -151.43,-150zm-695.62 2.9l0 1037.63c0,40.24 43.81,84.05 84.05,84.05l759.38 0c21.66,0 45.88,-15.21 57.36,-26.69 11.49,-11.48 26.69,-35.7 26.69,-57.36l0 -872.42c0,-9.73 -113.65,-118 -122.46,-126.81 -8.53,-8.53 -117.21,-122.46 -126.81,-122.46l-594.17 0c-40.24,0 -84.05,43.81 -84.05,84.05z"/>
  <path class="fil1" d="M203.74 682.19c0,-48.39 19.67,-102.28 47.81,-141.18 18.51,-25.58 37,-43.46 62.31,-62.18 12.37,-9.15 25.9,-16.48 39.67,-23.26 39.17,-19.29 76.05,-24.15 119.43,-24.15 32.04,0 73.22,10.27 101.69,24.52 36.14,18.08 52.25,31.49 80.49,59.4 2.7,2.67 4.72,5.64 7.29,8.33 13.83,14.53 28.24,39.45 37.15,57.54 19.25,39.09 24.15,76.14 24.15,119.43 0,31.84 -10.36,73.39 -24.52,101.69 -28.47,56.9 -68.15,96.79 -125.28,124.93 -39.24,19.33 -75.97,24.15 -119.43,24.15 -48.36,0 -102.26,-19.73 -141.31,-47.91l-25.58 -20.78c-0.17,-0.14 -0.31,-0.27 -0.47,-0.42 -14.54,-14.71 -23.55,-24.15 -36,-41.02 -9.14,-12.38 -16.47,-25.89 -23.26,-39.67 -19.3,-39.18 -24.15,-76.04 -24.15,-119.43zm210.8 -200.42c-5.59,1.34 -11.43,3.12 -15.25,4.38 -8.25,2.7 -16.11,5.8 -24.12,9.13 -11.37,4.72 -21.63,11.11 -31.83,17.9 -26.75,17.81 -49.23,42.22 -65.51,69.95l88.74 0c1.38,-3.96 2.41,-8.58 3.65,-12.3 5.65,-17.02 14.08,-37.86 22.8,-53.47 1.2,-2.14 2.24,-4.35 3.34,-6.54 5.15,-10.35 12.06,-19.53 18.18,-29.04zm91.98 -1.84c0.92,1.19 1.76,2.3 2.31,3.19 17.85,28.41 37.9,66.83 46.56,100l94.3 0c-11.53,-19.94 -22.65,-32.22 -40.16,-49.83 -5.69,-5.73 -11.93,-10.47 -18.37,-15.3 -18.54,-13.93 -57.36,-33.37 -84.65,-38.06zm-45.62 12.55c-1.4,1.93 -2.7,4.03 -3.71,5.46 -2.78,3.93 -5.66,7.75 -8.22,11.84 -10.68,17.08 -19.96,33.34 -27.42,52.06l-7.91 21.27 94.75 0c-3.65,-11.62 -9.76,-25.52 -14.31,-35.35l-13.93 -25.81c-2.17,-4.02 -4.69,-7.88 -7.11,-11.66l-12.15 -17.83zm-105.01 135.03l-97.44 0c-1.01,3.99 -2.54,7.97 -3.55,11.84 -7.48,28.82 -8.66,59.23 -3.35,88.53 0.81,4.5 3.55,20.4 6.14,25.39l98.27 0c-0.39,-2.75 -0.91,-5.59 -1.25,-7.86 -0.98,-6.53 -2,-13.22 -2.36,-19.81 -0.65,-11.74 -2.03,-23.43 -2.03,-35.21 0,-12.08 1.43,-24.1 2.08,-36.16 0.25,-4.55 1.77,-17.65 3.49,-26.72zm209.62 0c0.49,2.9 1.13,5.83 1.52,8.6 5.05,36.18 5.74,72.81 0.4,109.01 -0.29,1.96 -0.69,4.04 -1.01,6.1l104.41 0c0.09,-0.64 0.18,-1.28 0.29,-1.79 8.32,-36.94 10.88,-56.47 4.64,-94.42 -0.91,-5.56 -1.99,-11.05 -3.39,-16.5 -0.94,-3.65 -2.37,-7.3 -3.33,-11.01l-103.53 0zm-44.66 124.73c0.46,-3.76 1.23,-7.54 1.85,-11.16l3.91 -49.88c-0.01,-14.54 -1.38,-28.96 -3.46,-43.34 -0.87,-6.02 -2.51,-13.65 -3.29,-20.34l-118.47 0c-0.03,0.28 -0.06,0.54 -0.1,0.77l-3.39 22.04c-3.75,34.86 -2.99,68.33 3.49,102.94 0.02,0.1 0.04,0.21 0.06,0.33 1.59,-0.07 3.53,-0.28 4.78,-0.3 4.78,-0.07 9.96,0.4 14.67,-0.13 15.97,-1.79 35.66,-1.14 51.87,-1.14 16.02,0 32.05,0.18 48.08,0.22zm34.88 44.4c-2.19,5.82 -4.21,13.82 -5.95,19.03 -4.76,14.24 -10.25,28.22 -16.97,41.66 -4.94,9.88 -9.93,19.58 -15.63,29.14l-10.19 16.03c6.02,-1.22 12.33,-2.96 16.68,-4.31 57.16,-17.68 98.78,-51.63 128.04,-102.49 -14.82,0.25 -29.63,0.94 -44.46,0.94 -17.17,0 -34.34,0 -51.51,0zm-95.02 93.44c0.11,-0.14 0.22,-0.28 0.33,-0.43 18.22,-23.63 35.41,-57.21 45.55,-85.27 0.79,-2.2 1.46,-4.46 2.15,-6.71l-96.22 0c2.32,7.46 6.75,17.6 8.71,22.52 7.54,18.96 16.96,35.62 27.74,52.86 2.55,4.09 5.44,7.91 8.22,11.84 0.97,1.37 2.19,3.34 3.52,5.19zm-45.79 11.33c-8.97,-14.58 -19.37,-28.01 -26.5,-44.41l-13.07 -30.09c-2.83,-7.06 -7.73,-20.03 -9.78,-29.22 -15.46,0.16 -30.9,1 -46.36,1 -14,0 -28,0 -42,0 0.55,0.99 1.09,1.99 1.65,2.99 11.84,21.38 35.73,46.61 55.26,61.26 6.61,4.96 13.1,9.51 20.24,13.7 13.45,7.9 40.95,20.46 60.57,24.78z"/>
 </g>
</svg>
