<?xml version="1.0" encoding="UTF-8"?>
<!DOCTYPE svg PUBLIC "-//W3C//DTD SVG 1.1//EN" "http://www.w3.org/Graphics/SVG/1.1/DTD/svg11.dtd">
<!-- Creator: CorelDRAW 2021 (64-Bit) -->
<svg xmlns="http://www.w3.org/2000/svg" xml:space="preserve" width="27.0932mm" height="35.2212mm" version="1.1" style="shape-rendering:geometricPrecision; text-rendering:geometricPrecision; image-rendering:optimizeQuality; fill-rule:evenodd; clip-rule:evenodd"
viewBox="0 0 1312.13 1705.77"
 xmlns:xlink="http://www.w3.org/1999/xlink"
 xmlns:xodm="http://www.corel.com/coreldraw/odm/2003">
 <defs>
  <style type="text/css">
   <![CDATA[
    .fil0 {fill:black}
    .fil1 {fill:black}
   ]]>
  </style>
 </defs>
 <g id="Capa_x0020_1">
  <metadata id="CorelCorpID_0Corel-Layer"/>
  <path class="fil0" d="M65.6 1562.26l0 -1418.74c0,-51.58 26.33,-77.9 77.91,-77.9l774.98 0 0 209.12c0,56.93 61.98,118.92 118.91,118.92l209.12 0 0 1168.62c0,51.58 -26.33,77.91 -77.91,77.91l-1025.1 0c-51.58,0 -77.91,-26.33 -77.91,-77.91zm918.49 -1447.45l214.24 212.21c-234.77,1.02 -214.24,21.56 -214.24,-212.21zm-984.1 4.1l0 1467.95c0,56.93 61.98,118.91 118.91,118.91l1074.31 0c30.64,0 64.91,-21.51 81.15,-37.76 16.25,-16.24 37.76,-50.51 37.76,-81.15l0 -1234.22c0,-13.77 -160.78,-166.93 -173.24,-179.4 -12.07,-12.06 -165.82,-173.24 -179.4,-173.24l-840.58 0c-56.93,0 -118.91,61.98 -118.91,118.91z"/>
  <g id="_2095909747168">
   <path class="fil1" d="M349.96 877.44l105.27 0c14.73,0 29.46,-16.81 44.43,-28.93l121.44 -100.26 0 462.54 -140.58 -116.21c-7.22,-5.86 -12.58,-12.98 -25.3,-12.98l-105.27 0 0 -204.15zm-68.58 -35.09l0 274.33c0,10.34 7.05,21.73 13.62,26.25 11.51,7.94 16.18,7.26 34.23,7.24l100.57 -0.08c15.51,-0.15 15.05,4.86 38.42,23.78 35.19,28.5 77.79,66.68 112.1,93.65 8.15,6.41 14.85,12.06 22.75,18.71l33.06 27.55c20.96,14.58 55.16,4.77 55.16,-34.42l0 -599.7c0,-13.15 -3.32,-22.98 -9.88,-29.99 -5.86,-6.26 -17.58,-12.49 -29.11,-10.71 -15.86,2.45 -34.77,21.22 -48.38,33.08 -3.62,3.16 -6.62,5.53 -10.42,8.72 -4.05,3.41 -7.23,6.15 -11.35,9.39 -8.15,6.41 -14.85,12.06 -22.75,18.71l-112.12 93.63c-6.16,4.96 -4.15,6.28 -14.24,6.49l-102.21 -0.14c-18.59,-0.01 -22.81,-1.24 -34.86,6.61 -7.08,4.62 -14.59,15.61 -14.59,26.88z"/>
   <path class="fil1" d="M758.27 772.17c0,44.16 34.81,35 66.07,40.79 28.85,5.34 51.05,16.89 70.66,31.42 9.84,7.29 17.34,15.02 25.58,23.87 36.13,38.83 49.72,100.76 35.81,154.68 -15.78,61.21 -67.49,110.79 -130.71,122.9 -6.65,1.27 -13.83,2.84 -22.72,2.79 -26.65,-0.14 -44.69,7.73 -44.69,38.25 0,18.35 17.48,31.11 35.18,31.91 10.66,0.48 49.59,-6.05 59.88,-8.61 62.85,-15.6 122.58,-64.15 150.56,-120.58 56.3,-113.48 21.34,-240.14 -79.09,-308.51 -6.52,-4.44 -13.97,-8.73 -20.89,-12.61 -7.13,-3.99 -15.92,-7.5 -23.05,-10.44 -8.68,-3.58 -16.1,-6.31 -26.25,-8.84 -11.92,-2.98 -31.04,-7 -43.72,-7.31 -8.14,-0.2 -9.53,-1.58 -15.96,-1.62 -18.75,-0.14 -36.67,13.6 -36.67,31.93z"/>
   <path class="fil1" d="M758.27 874.25c0,16.65 4.61,28.75 20.89,34.93 16.54,6.29 45.85,-1.23 68.69,31.79 15.96,23.08 16.22,52.39 0.65,76.15 -7.13,10.88 -15.44,17.66 -27.45,23.6 -21.75,10.74 -62.79,-3.07 -62.79,44.07 0,11.94 7.72,21.17 15.56,25.91 11.09,6.69 20.5,5.61 35.35,4.27 62,-5.59 119.75,-62.77 119.75,-137.04 0,-49.26 -28.85,-90.43 -58.67,-110.4 -22.56,-15.1 -71.42,-34.31 -95.45,-19.79 -8.4,5.08 -16.54,13.88 -16.54,26.52z"/>
  </g>
 </g>
</svg>
