<?xml version="1.0" encoding="UTF-8"?>
<!DOCTYPE svg PUBLIC "-//W3C//DTD SVG 1.1//EN" "http://www.w3.org/Graphics/SVG/1.1/DTD/svg11.dtd">
<!-- Creator: CorelDRAW 2021 (64-Bit) -->
<svg xmlns="http://www.w3.org/2000/svg" xml:space="preserve" width="27.0932mm" height="35.2212mm" version="1.1" style="shape-rendering:geometricPrecision; text-rendering:geometricPrecision; image-rendering:optimizeQuality; fill-rule:evenodd; clip-rule:evenodd"
viewBox="0 0 1293.05 1680.97"
 xmlns:xlink="http://www.w3.org/1999/xlink"
 xmlns:xodm="http://www.corel.com/coreldraw/odm/2003">
 <defs>
  <style type="text/css">
   <![CDATA[
    .str0 {stroke:black;stroke-width:64.65;stroke-linecap:round;stroke-linejoin:round;stroke-miterlimit:22.9256}
    .fil1 {fill:none}
    .fil0 {fill:black}
   ]]>
  </style>
 </defs>
 <g id="Capa_x0020_1">
  <metadata id="CorelCorpID_0Corel-Layer"/>
  <path class="fil0" d="M64.65 1539.54l0 -1398.11c0,-50.83 25.95,-76.77 76.78,-76.77l763.71 0 0 206.08c0,56.1 61.08,117.19 117.18,117.19l206.08 0 0 1151.62c0,50.83 -25.95,76.78 -76.78,76.78l-1010.2 0c-50.83,0 -76.78,-25.95 -76.78,-76.78zm905.14 -1426.4l211.12 209.12c-231.36,1 -211.12,21.24 -211.12,-209.12zm-969.79 4.04l0 1446.6c0,56.1 61.08,117.18 117.18,117.18l1058.69 0c30.2,0 63.96,-21.2 79.97,-37.21 16.01,-16.01 37.21,-49.77 37.21,-79.97l0 -1216.28c0,-13.57 -158.44,-164.51 -170.72,-176.79 -11.89,-11.89 -163.41,-170.72 -176.79,-170.72l-828.36 0c-56.1,0 -117.18,61.08 -117.18,117.18z"/>
  <g id="_2095906411456">
   <line class="fil1 str0" x1="493.4" y1="1183.77" x2="493.4" y2= "836.23" />
   <line class="fil1 str0" x1="405.91" y1="1183.77" x2="405.91" y2= "989.85" />
   <line class="fil1 str0" x1="318.43" y1="1183.77" x2="318.43" y2= "1100.69" />
   <line class="fil1 str0" x1="230.96" y1="1183.77" x2="230.96" y2= "1163.98" />
   <path class="fil1 str0" d="M580.61 1184.55c-2.02,-116.33 2.03,-232.66 0,-348.99 24.28,-39.45 75.95,-85.7 185.12,-91.04 109.17,-5.35 209.9,112.61 209.9,220.01 99.64,34.9 129.99,159.32 0,220.02 -129.65,0 -265.37,0 -395.02,0z"/>
  </g>
 </g>
</svg>
