<?xml version="1.0" encoding="UTF-8"?>
<!DOCTYPE svg PUBLIC "-//W3C//DTD SVG 1.1//EN" "http://www.w3.org/Graphics/SVG/1.1/DTD/svg11.dtd">
<!-- Creator: CorelDRAW 2021 (64-Bit) -->
<svg xmlns="http://www.w3.org/2000/svg" xml:space="preserve" width="27.0932mm" height="35.2212mm" version="1.1" style="shape-rendering:geometricPrecision; text-rendering:geometricPrecision; image-rendering:optimizeQuality; fill-rule:evenodd; clip-rule:evenodd"
viewBox="0 0 927.49 1205.74"
 xmlns:xlink="http://www.w3.org/1999/xlink"
 xmlns:xodm="http://www.corel.com/coreldraw/odm/2003">
 <defs>
  <style type="text/css">
   <![CDATA[
    .fil0 {fill:black}
   ]]>
  </style>
 </defs>
 <g id="Capa_x0020_1">
  <metadata id="CorelCorpID_0Corel-Layer"/>
  <path class="fil0" d="M46.37 1104.29l0 -1002.85c0,-36.46 18.61,-55.07 55.07,-55.07l547.8 0 0 147.82c0,40.24 43.81,84.06 84.05,84.06l147.82 0 0 826.04c0,36.46 -18.61,55.07 -55.07,55.07l-724.6 0c-36.46,0 -55.07,-18.61 -55.07,-55.07zm649.24 -1023.14l151.43 150c-165.95,0.72 -151.43,15.24 -151.43,-150zm-695.62 2.9l0 1037.63c0,40.24 43.81,84.05 84.05,84.05l759.38 0c21.66,0 45.88,-15.21 57.36,-26.69 11.49,-11.48 26.69,-35.7 26.69,-57.36l0 -872.42c0,-9.73 -113.65,-118 -122.46,-126.81 -8.53,-8.53 -117.21,-122.46 -126.81,-122.46l-594.17 0c-40.24,0 -84.05,43.81 -84.05,84.05z"/>
  <g id="_2095904745376">
   <path class="fil0" d="M471.76 587.15c0,-31.4 49.28,-28.86 49.28,-5.8 0,18.26 -1.78,28.98 -26.09,28.98 -13.73,0 -23.19,-11.78 -23.19,-23.19z"/>
   <path class="fil0" d="M548.84 772.57l175.76 0c23.34,0 23.34,46.38 0,46.38l-175.76 0c-29.3,0 -29.3,-46.38 0,-46.38z"/>
   <path class="fil0" d="M205.79 668.23l332.7 0c23.34,0 23.34,46.38 0,46.38l-332.7 0c-29.3,0 -29.3,-46.38 0,-46.38z"/>
   <path class="fil0" d="M492.07 876.91l232.53 0c23.34,0 23.34,46.37 0,46.37l-232.53 0c-29.3,0 -29.3,-46.37 0,-46.37z"/>
   <path class="fil0" d="M205.79 563.89l225.75 0c23.34,0 23.34,46.37 0,46.37l-225.75 0c-29.3,0 -29.3,-46.37 0,-46.37z"/>
   <path class="fil0" d="M205.79 459.55l166.66 0c23.34,0 23.34,46.37 0,46.37l-166.66 0c-29.3,0 -29.3,-46.37 0,-46.37z"/>
   <path class="fil0" d="M567.51 563.89l157.09 0c23.34,0 23.34,46.37 0,46.37l-157.09 0c-29.3,0 -29.3,-46.37 0,-46.37z"/>
   <path class="fil0" d="M598.47 668.23l126.13 0c23.34,0 23.34,46.37 0,46.37l-126.13 0c-29.3,0 -29.3,-46.37 0,-46.37z"/>
   <path class="fil0" d="M338.34 772.57l149.53 0c23.34,0 23.34,46.38 0,46.38l-149.53 0c-29.3,0 -29.3,-46.38 0,-46.38z"/>
   <path class="fil0" d="M205.79 772.57l74.31 0c23.34,0 23.34,46.38 0,46.38l-74.31 0c-29.3,0 -29.3,-46.38 0,-46.38z"/>
   <path class="fil0" d="M183.81 900.18c0,-31.4 49.28,-28.86 49.28,-5.8 0,18.26 -1.78,28.98 -26.09,28.98 -13.73,0 -23.19,-11.78 -23.19,-23.19z"/>
   <path class="fil0" d="M274.05 876.91l159.85 0c23.34,0 23.34,46.37 0,46.37l-159.85 0c-29.3,0 -29.3,-46.37 0,-46.37z"/>
  </g>
 </g>
</svg>
