<?xml version="1.0" encoding="UTF-8"?>
<!DOCTYPE svg PUBLIC "-//W3C//DTD SVG 1.1//EN" "http://www.w3.org/Graphics/SVG/1.1/DTD/svg11.dtd">
<!-- Creator: CorelDRAW 2021 (64-Bit) -->
<svg xmlns="http://www.w3.org/2000/svg" xml:space="preserve" width="27.0932mm" height="35.2212mm" version="1.1" style="shape-rendering:geometricPrecision; text-rendering:geometricPrecision; image-rendering:optimizeQuality; fill-rule:evenodd; clip-rule:evenodd"
viewBox="0 0 499.01 648.72"
 xmlns:xlink="http://www.w3.org/1999/xlink"
 xmlns:xodm="http://www.corel.com/coreldraw/odm/2003">
 <defs>
  <style type="text/css">
   <![CDATA[
    .str1 {stroke:black;stroke-width:24.95;stroke-miterlimit:22.9256}
    .str0 {stroke:black;stroke-width:24.95;stroke-linecap:round;stroke-miterlimit:22.9256}
    .fil1 {fill:none}
    .fil0 {fill:black}
   ]]>
  </style>
 </defs>
 <g id="Capa_x0020_1">
  <metadata id="CorelCorpID_0Corel-Layer"/>
  <path class="fil0" d="M24.95 594.14l0 -539.56c0,-19.62 10.01,-29.63 29.63,-29.63l294.73 0 0 79.53c0,21.65 23.57,45.22 45.22,45.22l79.53 0 0 444.43c0,19.62 -10.01,29.63 -29.63,29.63l-389.85 0c-19.62,0 -29.63,-10.01 -29.63,-29.63zm349.31 -550.48l81.48 80.7c-89.29,0.39 -81.48,8.2 -81.48,-80.7zm-374.26 1.56l0 558.27c0,21.65 23.57,45.22 45.22,45.22l408.57 0c11.65,0 24.68,-8.18 30.86,-14.36 6.18,-6.18 14.36,-19.21 14.36,-30.86l0 -469.39c0,-5.24 -61.15,-63.49 -65.88,-68.23 -4.59,-4.59 -63.06,-65.88 -68.23,-65.88l-319.68 0c-21.65,0 -45.22,23.57 -45.22,45.22z"/>
  <path class="fil1 str0" d="M260.36 336.05c15.29,0 24.41,0.49 24.41,16.04 0,12.18 -9.49,30.82 -16.43,40.06 -7.44,9.92 -15.41,10.02 -22.5,-0.43 -3.05,-4.49 -4.16,-7.58 -5.56,-13.26 -2.59,-10.45 -2.93,-20.85 -4.62,-32.34 -1.53,-10.37 -3.34,-21.73 -6.39,-30.57 -11.8,-34.18 -39.9,-12.9 -56.98,1.46 -1.55,1.3 -1.92,1.33 -3.45,2.82l-20.74 18.31c1.3,4.86 5.18,9.07 10.46,9.07 13.26,0 19.91,-13.08 28.5,12.64 1.01,3.03 1.84,6.26 2.78,9.07l8.18 28.08c3.73,14.91 12.57,62.48 34.45,62.48 13.07,0 21.23,-4.51 30.98,-11.56 22.38,-16.17 39.72,-39.2 53.18,-63.27 8.69,-15.53 26.71,-50.9 26.71,-67.43 0,-7.04 -0.24,-14.93 -7.37,-19.83 -8.32,-5.72 -14.11,-5.28 -24.01,-5.28 -13.29,0 -32.14,12.84 -38.35,20.92 -5.17,6.71 -10.85,12.71 -13.25,23.01z"/>
  <rect class="fil1 str1" x="109.93" y="235.23" width="279.15" height="273.54" rx="54.52" ry="10.32"/>
 </g>
</svg>
