<?xml version="1.0" encoding="UTF-8"?>
<!DOCTYPE svg PUBLIC "-//W3C//DTD SVG 1.1//EN" "http://www.w3.org/Graphics/SVG/1.1/DTD/svg11.dtd">
<!-- Creator: CorelDRAW 2021 (64-Bit) -->
<svg xmlns="http://www.w3.org/2000/svg" xml:space="preserve" width="27.0932mm" height="35.2212mm" version="1.1" style="shape-rendering:geometricPrecision; text-rendering:geometricPrecision; image-rendering:optimizeQuality; fill-rule:evenodd; clip-rule:evenodd"
viewBox="0 0 6561.32 8529.73"
 xmlns:xlink="http://www.w3.org/1999/xlink"
 xmlns:xodm="http://www.corel.com/coreldraw/odm/2003">
 <defs>
  <style type="text/css">
   <![CDATA[
    .str0 {stroke:black;stroke-width:328.08;stroke-miterlimit:22.9256}
    .str1 {stroke:black;stroke-width:328.08;stroke-linecap:round;stroke-linejoin:round;stroke-miterlimit:22.9256}
    .fil1 {fill:none}
    .fil0 {fill:black}
   ]]>
  </style>
 </defs>
 <g id="Capa_x0020_1">
  <metadata id="CorelCorpID_0Corel-Layer"/>
  <path class="fil0" d="M328.05 7812.09l0 -7094.45c0,-257.92 131.67,-389.56 389.59,-389.56l3875.3 0 0 1045.69c0,284.68 309.94,594.64 594.61,594.64l1045.72 0 0 5843.68c0,257.92 -131.67,389.59 -389.59,389.59l-5126.04 0c-257.92,0 -389.59,-131.67 -389.59,-389.59zm4592.94 -7237.99l1071.29 1061.14c-1174,5.09 -1071.29,107.79 -1071.29,-1061.14zm-4920.99 20.51l0 7340.5c0,284.68 309.94,594.61 594.61,594.61l5372.09 0c153.22,0 324.56,-107.57 405.79,-188.82 81.25,-81.23 188.82,-252.57 188.82,-405.79l0 -6171.76c0,-68.85 -803.98,-834.76 -866.29,-897.07 -60.35,-60.33 -829.19,-866.29 -897.07,-866.29l-4203.35 0c-284.68,0 -594.61,309.94 -594.61,594.61z"/>
  <g id="_2095733607280">
   <rect class="fil1 str0" x="1359.88" y="3533.28" width="3841.57" height="2821.16" rx="1021.69" ry="366.67"/>
   <polygon class="fil1 str1" points="3953.18,4943.85 3345.32,4587.69 2737.46,4231.54 2737.46,4943.85 2737.46,5656.17 3345.32,5300.02 "/>
  </g>
 </g>
</svg>
